# Blender 3.5.1
# www.blender.org
mtllib NewLargeMeshB.mtl.mtl
o Movement2_Cylinder.001_Cylinder.001
v -0.201049 0.165096 -0.201050
v -0.201049 -0.006589 -0.201050
v -0.163332 -0.006589 -0.232003
v -0.236409 0.165096 -0.157964
v -0.236409 -0.006589 -0.157964
v -0.204067 -0.006589 -0.197371
v -0.263265 0.165096 0.106890
v -0.262684 -0.006589 0.108807
v -0.263265 -0.006589 0.106890
v -0.112899 -0.006206 -0.260496
v -0.112899 0.164713 -0.260496
v -0.118096 0.165096 -0.257718
v -0.204067 0.165096 0.197371
v -0.201049 -0.006589 0.201049
v -0.204067 -0.006589 0.197371
v -0.157964 0.165096 0.236409
v -0.157964 -0.006589 0.236409
v -0.163332 -0.006589 0.232003
v -0.263294 -0.006589 -0.106794
v -0.263262 -0.006589 -0.106901
v -0.263262 0.165096 -0.106901
v -0.237972 -0.006589 0.155039
v -0.237972 0.165096 0.155039
v -0.237906 0.165096 0.155163
v -0.278863 0.165096 -0.055470
v -0.278964 0.165096 -0.054446
v -0.278964 -0.006589 -0.054446
v -0.237906 -0.006589 -0.155163
v -0.237906 0.165096 -0.155163
v -0.237966 0.165096 -0.155050
v -0.118097 0.165096 0.257718
v -0.112900 0.164713 0.260496
v -0.118097 -0.006589 0.257718
v -0.278966 0.165096 0.054423
v -0.278863 0.165096 0.055469
v -0.278966 -0.006589 0.054424
v -0.157963 -0.006589 -0.236409
v -0.163332 0.165096 -0.232003
v -0.157963 0.165096 -0.236409
v -0.204068 0.165096 -0.197371
v -0.263301 -0.006589 0.106771
v -0.278863 -0.006589 0.055469
v -0.263301 0.165096 0.106771
v -0.262684 0.165096 0.108807
v -0.118097 -0.006589 -0.257718
v -0.112900 -0.006589 -0.260496
v -0.112900 0.165096 -0.260496
v -0.236409 -0.006589 0.157963
v -0.236409 0.165096 0.157963
v -0.201049 0.165096 0.201049
v -0.163332 0.165096 0.232003
v -0.262683 -0.006589 -0.108807
v -0.262683 0.165096 -0.108807
v -0.263294 0.165096 -0.106794
v -0.278863 -0.006589 -0.055470
v -0.237906 -0.006589 0.155163
v -0.278954 -0.006589 -0.054553
v -0.278954 0.165096 -0.054553
v -0.278975 0.165096 -0.054339
v -0.284327 0.165096 -0.000000
v -0.278975 -0.006589 -0.054339
v -0.284327 -0.006589 0.000000
v -0.237966 -0.006589 -0.155050
v -0.112900 0.165096 0.260496
v -0.112900 -0.006206 0.260496
v -0.112900 -0.006589 0.260496
v -0.284317 -0.006589 0.000096
v -0.284317 0.165096 0.000096
v -0.278956 0.165096 0.054531
v -0.278956 -0.006589 0.054531
v -3.534906 0.165096 -0.197462
v -3.535006 0.079308 -0.260496
v -3.534906 0.079308 -0.197462
v -3.534906 0.165096 0.057099
v -3.534906 0.079308 -0.007008
v -3.534906 0.079308 0.057099
v -3.534906 -0.006589 -0.007008
v -3.534906 -0.006589 0.057099
v -3.535006 -0.006589 -0.260496
v -3.534906 -0.006589 -0.197462
v -3.534906 -0.006589 0.191263
v -3.534906 0.079308 0.121207
v -3.534906 -0.006589 0.121207
v -3.534906 0.165096 0.191263
v -3.534906 0.079308 0.191263
v -3.534906 0.079308 -0.070718
v -3.534906 -0.006589 -0.134428
v -3.534906 -0.006589 -0.070718
v -3.534906 0.165096 -0.070718
v -3.534906 0.079308 -0.134428
v -3.534906 0.165096 -0.007008
v -3.534906 0.165096 0.121207
v -3.535006 0.165096 0.260496
v -3.535006 0.079308 0.260496
v -3.535006 -0.006589 0.260496
v -3.534906 0.165096 -0.134428
v -3.535006 0.165096 -0.260496
vn 0.6344 -0.0000 0.7730
vn 0.7730 -0.0000 0.6344
vn 0.9569 -0.0000 -0.2905
vn 0.4714 -0.0000 0.8819
vn 0.7731 -0.0000 -0.6343
vn 0.6344 -0.0000 -0.7730
vn 0.9574 -0.0000 0.2889
vn 0.8825 -0.0000 -0.4703
vn 0.9952 -0.0000 0.0982
vn 0.8804 -0.0000 0.4742
vn 0.4714 -0.0000 -0.8819
vn 0.9952 -0.0000 -0.0980
vn 0.7731 -0.0000 0.6342
vn 0.9569 -0.0000 -0.2903
vn 0.9572 -0.0000 -0.2895
vn 0.9568 -0.0000 -0.2906
vn 0.9572 -0.0000 -0.2896
vn 0.4714 -0.0008 0.8819
vn 0.4714 0.0006 0.8819
vn 0.7730 -0.0000 -0.6344
vn 0.9570 -0.0000 0.2902
vn 0.9573 -0.0000 0.2890
vn 0.9569 -0.0000 0.2903
vn 0.8819 -0.0000 -0.4714
vn 0.8819 -0.0000 -0.4715
vn 0.8827 -0.0000 -0.4699
vn 0.9951 -0.0000 0.0987
vn 0.0083 1.0000 -0.0038
vn 0.9948 -0.0000 0.1022
vn 0.9952 -0.0000 0.0980
vn 0.9955 -0.0000 0.0949
vn 0.8819 -0.0000 0.4714
vn 0.8807 -0.0000 0.4736
vn 0.9951 -0.0000 -0.0992
vn 0.0157 0.9998 -0.0089
vn 0.9952 -0.0000 -0.0983
vn 0.9955 -0.0000 -0.0947
vn -1.0000 -0.0000 0.0016
vn -1.0000 -0.0000 -0.0000
vn -0.0000 -1.0000 -0.0000
vn -1.0000 -0.0000 -0.0014
vn -0.0000 -0.0000 -1.0000
vn -0.0000 1.0000 -0.0001
vn -0.0000 1.0000 0.0002
vn -0.0000 1.0000 -0.0000
vn -0.0000 -0.0000 1.0000
vn -0.0000 1.0000 0.0001
vt 0.072248 0.980422
vt 0.056429 0.977498
vt 0.145141 0.581037
vt 0.072248 0.978772
vt 0.053679 0.977498
vt 0.072248 0.977498
vt 0.072852 0.978772
vt 0.072852 0.977200
vt 0.056429 0.977912
vt 0.152526 0.576863
vt 0.053679 0.977912
vt 0.071682 0.977912
vt 0.053679 0.977533
vt 0.072200 0.977533
vt 0.056429 0.980457
vt 0.197920 0.573692
vt 0.053679 0.980476
vt 0.071261 0.980476
vt 0.053679 0.980457
vt 0.071252 0.980457
vt 0.073660 0.978775
vt 0.073660 0.980418
vt 0.073577 0.980422
vt 0.135429 0.590830
vt 0.073577 0.976953
vt 0.056429 0.981327
vt 0.213428 0.580681
vt 0.053679 0.981362
vt 0.072248 0.978772
vt 0.072248 0.981362
vt 0.053679 0.981327
vt 0.072200 0.981327
vt 0.072938 0.980422
vt 0.072938 0.981702
vt 0.072938 0.978772
vt 0.072938 0.981702
vt 0.072852 0.978772
vt 0.072852 0.981660
vt 0.053679 0.978404
vt 0.071251 0.978404
vt 0.053679 0.978403
vt 0.071252 0.978403
vt 0.056429 0.978403
vt 0.161278 0.573693
vt 0.053679 0.980920
vt 0.071657 0.980920
vt 0.056429 0.980920
vt 0.206173 0.576678
vt 0.056429 0.980921
vt 0.206194 0.576686
vt 0.056429 0.978897
vt 0.170093 0.571851
vt 0.056429 0.978907
vt 0.170268 0.571839
vt 0.053679 0.978907
vt 0.071000 0.978907
vt 0.053679 0.977939
vt 0.071658 0.977939
vt 0.056429 0.977939
vt 0.153006 0.576686
vt 0.056429 0.977940
vt 0.153025 0.576679
vt 0.073577 0.980422
vt 0.223772 0.590830
vt 0.073577 0.981907
vt 0.073660 0.980418
vt 0.073577 0.978772
vt 0.073577 0.981907
vt 0.056429 0.979953
vt 0.188928 0.571839
vt 0.056429 0.979963
vt 0.189107 0.571851
vt 0.053679 0.979953
vt 0.071000 0.979953
vt 0.072938 0.978772
vt 0.072938 0.977158
vt 0.072852 0.980422
vt 0.072852 0.977200
vt 0.139836 0.585490
vt 0.072938 0.980422
vt 0.072938 0.977158
vt 0.056429 0.977533
vt 0.145771 0.580681
vt 0.053679 0.980456
vt 0.071251 0.980456
vt 0.053679 0.979963
vt 0.071002 0.979963
vt 0.056429 0.980456
vt 0.197900 0.573688
vt 0.056429 0.980476
vt 0.198249 0.573761
vt 0.073577 0.978772
vt 0.073577 0.976953
vt 0.073660 0.976927
vt 0.073660 0.978772
vt 0.073660 0.976927
vt 0.073660 0.980422
vt 0.053679 0.980948
vt 0.071682 0.980948
vt 0.056429 0.980948
vt 0.206674 0.576863
vt 0.056429 0.981362
vt 0.072248 0.980422
vt 0.214059 0.581037
vt 0.072852 0.980422
vt 0.072852 0.981660
vt 0.219364 0.585490
vt 0.053679 0.978384
vt 0.071261 0.978384
vt 0.056429 0.978384
vt 0.160951 0.573761
vt 0.056429 0.978404
vt 0.161296 0.573689
vt 0.053679 0.978897
vt 0.071002 0.978897
vt 0.053679 0.980921
vt 0.071658 0.980921
vt 0.053679 0.978906
vt 0.071000 0.978906
vt 0.170250 0.571840
vt 0.056429 0.978908
vt 0.170286 0.571838
vt 0.056429 0.979430
vt 0.179600 0.571206
vt 0.053679 0.978908
vt 0.071000 0.978908
vt 0.053679 0.979430
vt 0.070914 0.979430
vt 0.053679 0.977940
vt 0.071657 0.977940
vt 0.224248 0.591443
vt 0.073660 0.980422
vt 0.073660 0.978775
vt 0.073660 0.981934
vt 0.073660 0.978772
vt 0.053679 0.979431
vt 0.070914 0.979431
vt 0.056429 0.979431
vt 0.179616 0.571207
vt 0.188946 0.571840
vt 0.053679 0.979954
vt 0.071000 0.979954
vt 0.056429 0.977532
vt 0.148434 0.246488
vt 0.055055 0.976927
vt 0.018844 0.979597
vt 0.055055 0.977532
vt 0.056429 0.979979
vt 0.188182 0.249733
vt 0.055055 0.979363
vt 0.055055 0.979979
vt 0.053679 0.979363
vt 0.019806 0.979363
vt 0.053679 0.979979
vt 0.019775 0.979979
vt 0.053679 0.976927
vt 0.018844 0.976927
vt 0.018844 0.978772
vt 0.053679 0.977532
vt 0.019266 0.977532
vt 0.053679 0.981268
vt 0.019264 0.981268
vt 0.055055 0.980595
vt 0.053679 0.980595
vt 0.019578 0.980595
vt 0.056429 0.981268
vt 0.209131 0.246474
vt 0.055055 0.981268
vt 0.055055 0.978750
vt 0.053679 0.978138
vt 0.019552 0.978138
vt 0.053679 0.978750
vt 0.019713 0.978750
vt 0.056429 0.978750
vt 0.168224 0.249336
vt 0.055055 0.978138
vt 0.056429 0.979363
vt 0.178172 0.249930
vt 0.056429 0.980595
vt 0.198192 0.248479
vt 0.056429 0.981934
vt 0.219941 0.243800
vt 0.018844 0.980422
vt 0.055055 0.981934
vt 0.018844 0.979597
vt 0.053679 0.981934
vt 0.018844 0.981934
vt 0.018844 0.978772
vt 0.056429 0.978138
vt 0.158276 0.248308
vt 0.056429 0.976927
vt 0.018844 0.976927
vt 0.138591 0.243800
vt 0.018844 0.980422
s 0
usemtl Material.005
f 1/1/1 2/4/1 3/7/1
f 4/9/2 5/11/2 6/13/2
f 7/15/3 8/17/3 9/19/3
f 10/21/4 11/22/4 12/23/4
f 13/26/5 14/28/5 15/31/5
f 16/33/6 17/35/6 18/37/6
f 19/39/7 20/41/7 21/43/7
f 22/45/8 23/47/8 24/49/8
f 25/51/9 26/53/9 27/55/9
f 28/57/10 29/59/10 30/61/10
f 31/63/11 32/66/11 33/67/11
f 34/69/12 35/71/12 36/73/12
f 3/7/1 37/75/1 38/77/1
f 37/75/1 39/80/1 38/77/1
f 38/77/1 1/1/1 3/7/1
f 6/13/13 2/5/13 1/2/13
f 1/2/2 40/82/2 6/13/2
f 40/82/2 4/9/2 6/13/2
f 41/84/14 42/86/14 35/71/14
f 35/71/14 43/88/14 41/84/14
f 43/88/15 7/15/15 9/19/15
f 7/15/16 44/90/16 8/17/16
f 9/19/17 41/84/17 43/88/17
f 12/23/4 39/80/4 37/75/4
f 45/92/18 46/95/18 10/21/18
f 12/23/4 37/75/4 45/92/4
f 11/22/19 47/97/19 12/23/19
f 45/92/4 10/21/4 12/23/4
f 15/31/20 48/98/20 13/26/20
f 48/98/20 49/100/20 13/26/20
f 13/26/5 50/102/5 14/28/5
f 18/37/6 14/29/6 50/103/6
f 50/103/6 51/105/6 18/37/6
f 51/105/6 16/33/6 18/37/6
f 20/41/21 52/108/21 21/43/21
f 52/108/21 53/110/21 21/43/21
f 21/43/22 54/112/22 19/39/22
f 54/112/23 25/51/23 19/39/23
f 25/51/23 55/114/23 19/39/23
f 22/45/24 8/17/24 44/90/24
f 22/45/24 44/90/24 23/47/24
f 48/98/25 56/116/25 24/49/25
f 56/116/26 22/45/26 24/49/26
f 24/49/25 49/100/25 48/98/25
f 57/118/27 55/114/27 25/51/27
f 25/52/28 58/120/28 26/54/28
f 26/53/29 59/121/29 27/55/29
f 59/121/30 60/123/30 61/125/30
f 27/55/29 59/121/29 61/125/29
f 60/123/30 62/127/30 61/125/30
f 27/55/31 57/118/31 25/51/31
f 28/57/32 5/11/32 29/59/32
f 5/11/32 4/9/32 29/59/32
f 52/108/32 63/129/32 30/61/32
f 63/129/33 28/57/33 30/61/33
f 30/61/32 53/110/32 52/108/32
f 33/67/11 17/35/11 16/33/11
f 16/33/11 31/63/11 33/67/11
f 31/63/11 64/132/11 32/66/11
f 32/66/11 65/133/11 33/67/11
f 65/133/11 66/135/11 33/67/11
f 67/136/34 62/127/34 60/123/34
f 60/123/34 68/138/34 67/136/34
f 68/138/12 34/69/12 36/73/12
f 34/70/35 69/140/35 35/72/35
f 35/71/36 42/86/36 70/141/36
f 36/73/12 67/136/12 68/138/12
f 35/71/37 70/141/37 36/73/37
s 1
f 71/143/38 72/145/38 73/147/38
f 74/148/39 75/150/39 76/151/39
f 76/151/39 77/152/39 78/154/39
f 73/147/38 79/156/38 80/159/38
f 81/161/39 82/163/39 83/164/39
f 84/166/39 82/163/39 85/168/39
f 86/169/39 87/170/39 88/172/39
f 89/174/39 90/176/39 86/169/39
f 91/177/39 86/169/39 75/150/39
f 75/150/39 88/172/39 77/152/39
f 83/164/39 76/151/39 78/154/39
f 92/179/39 76/151/39 82/163/39
f 9/20/40 22/46/40 81/162/40
f 93/181/41 85/168/41 94/184/41
f 94/184/41 81/161/41 95/186/41
f 90/176/39 80/159/39 87/170/39
f 96/189/39 73/147/39 90/176/39
f 72/146/42 11/22/42 10/21/42
f 21/44/43 30/62/44 71/144/45
f 71/143/38 97/191/38 72/145/38
f 74/148/39 91/177/39 75/150/39
f 76/151/39 75/150/39 77/152/39
f 73/147/38 72/145/38 79/156/38
f 81/161/39 85/168/39 82/163/39
f 84/166/39 92/179/39 82/163/39
f 86/169/39 90/176/39 87/170/39
f 89/174/39 96/189/39 90/176/39
f 91/177/39 89/174/39 86/169/39
f 75/150/39 86/169/39 88/172/39
f 83/164/39 82/163/39 76/151/39
f 92/179/39 74/148/39 76/151/39
f 80/160/40 28/58/40 63/130/40
f 79/157/40 46/94/40 45/93/40
f 45/93/40 3/8/40 79/157/40
f 87/171/40 20/42/40 19/40/40
f 3/8/40 6/14/40 79/157/40
f 6/14/40 28/58/40 79/157/40
f 88/173/40 57/119/40 27/56/40
f 63/130/40 20/42/40 80/160/40
f 77/153/40 27/56/40 61/126/40
f 19/40/40 57/119/40 87/171/40
f 77/153/40 67/137/40 78/155/40
f 78/155/40 70/142/40 83/165/40
f 77/153/40 61/126/40 62/128/40
f 81/162/40 56/117/40 95/187/40
f 83/165/40 9/20/40 81/162/40
f 78/155/40 67/137/40 36/74/40
f 70/142/40 41/85/40 83/165/40
f 93/181/41 84/166/41 85/168/41
f 94/184/41 85/168/41 81/161/41
f 90/176/39 73/147/39 80/159/39
f 96/189/39 71/143/39 73/147/39
f 97/194/42 11/22/42 72/146/42
f 95/188/46 65/133/46 94/185/46
f 93/182/45 64/131/45 31/64/45
f 31/64/45 51/107/45 93/182/45
f 84/167/45 24/50/45 23/48/45
f 51/107/45 13/27/45 93/182/45
f 13/27/45 24/50/45 93/182/45
f 92/180/45 7/16/47 43/89/47
f 23/48/45 7/16/47 84/167/45
f 74/149/45 69/140/47 34/70/47
f 43/89/47 69/140/47 92/180/45
f 91/178/45 68/139/45 60/124/43
f 74/149/45 34/70/47 68/139/45
f 91/178/45 26/54/45 89/175/45
f 91/178/45 60/124/43 59/122/43
f 89/175/45 58/120/45 96/190/45
f 71/144/45 29/60/47 97/193/45
f 96/190/45 21/44/43 71/144/45
f 58/120/45 54/113/43 96/190/45
f 65/133/46 32/66/46 94/185/46
f 29/60/47 40/83/45 97/193/45
f 32/66/46 93/183/46 94/185/46
f 38/79/45 12/24/45 97/193/45
f 12/25/45 47/96/45 97/192/45
f 10/21/42 79/158/42 72/146/42
f 33/68/40 66/134/40 95/187/40
f 18/38/40 33/68/40 95/187/40
f 15/32/40 18/38/40 95/187/40
f 56/117/40 15/32/40 95/187/40
f 40/83/45 38/79/45 97/193/45
f 9/20/40 8/18/45 22/46/40
f 21/44/43 53/111/40 30/62/44
f 80/160/40 79/157/40 28/58/40
f 45/93/40 37/76/45 3/8/40
f 87/171/40 80/160/40 20/42/40
f 3/8/40 2/6/45 6/14/40
f 6/14/40 5/12/45 28/58/40
f 88/173/40 87/171/40 57/119/40
f 63/130/40 52/109/45 20/42/40
f 77/153/40 88/173/40 27/56/40
f 19/40/40 55/115/45 57/119/40
f 77/153/40 62/128/40 67/137/40
f 78/155/40 36/74/40 70/142/40
f 81/162/40 22/46/40 56/117/40
f 83/165/40 41/85/40 9/20/40
f 70/142/40 42/87/45 41/85/40
f 97/194/42 47/97/42 11/22/42
f 95/188/46 66/135/46 65/133/46
f 31/65/45 16/34/40 51/106/45
f 84/167/45 93/182/45 24/50/45
f 51/107/45 50/104/40 13/27/45
f 13/27/45 49/101/40 24/50/45
f 92/180/45 84/167/45 7/16/47
f 23/48/45 44/91/40 7/16/47
f 74/149/45 92/180/45 69/140/47
f 43/89/47 35/72/40 69/140/47
f 91/178/45 74/149/45 68/139/45
f 91/178/45 59/122/43 26/54/45
f 89/175/45 26/54/45 58/120/45
f 71/144/45 30/62/44 29/60/47
f 96/190/45 54/113/43 21/44/43
f 58/120/45 25/52/40 54/113/43
f 29/60/47 4/10/40 40/83/45
f 32/66/46 64/132/46 93/183/46
f 38/78/45 39/81/40 12/25/45
f 10/21/42 46/95/42 79/158/42
f 18/38/40 17/36/45 33/68/40
f 15/32/40 14/30/45 18/38/40
f 56/117/40 48/99/45 15/32/40
f 40/83/45 1/3/40 38/79/45
