# Blender v2.82 (sub 7) OBJ File: ''
# www.blender.org
mtllib Medium1v2.mtl
o Movement1_Cylinder_MediumTemplate
v 2.496913 0.165096 0.197462
v 2.465110 0.165096 -0.057099
v 2.463182 -0.006589 0.007008
v 2.465110 -0.006589 -0.057099
v 2.523255 -0.006589 0.260496
v 2.496913 -0.006589 0.197462
v 2.497046 -0.006589 -0.191263
v 2.497046 0.165096 -0.191263
v 2.479072 -0.006589 0.134428
v 2.463182 0.165096 0.007008
v 0.231932 -0.006589 -0.154972
v 2.523255 -0.006589 -0.260496
v 0.257709 -0.006589 -0.106746
v 2.523255 0.165096 -0.260496
v 2.479072 0.165096 0.134428
v 0.097556 0.165096 0.260496
v 0.097556 -0.006589 0.260496
v 0.054419 -0.006838 -0.273582
v 0.000000 -0.006838 -0.278942
v 0.097556 0.165096 -0.260496
v 0.097556 -0.006589 -0.260496
v 0.106746 -0.006589 -0.257709
v 0.154972 -0.006838 -0.231932
v 0.106746 -0.006838 -0.257709
v 0.154972 -0.006589 -0.231932
v 0.197242 -0.006838 -0.197242
v 0.197242 -0.006589 -0.197242
v 0.231932 -0.006838 -0.154972
v 0.257709 -0.006838 -0.106746
v 0.273582 -0.006838 -0.054419
v 0.273582 -0.006589 -0.054419
v 0.278942 -0.006838 -0.000000
v 0.278942 -0.006589 -0.000000
v 0.273582 -0.006838 0.054419
v 0.257709 -0.006589 0.106746
v 0.257709 -0.006838 0.106746
v 0.231932 -0.006838 0.154972
v 0.231932 -0.006589 0.154972
v 0.197242 -0.006838 0.197242
v 0.197242 -0.006589 0.197242
v 0.154972 -0.006838 0.231932
v 0.154972 -0.006589 0.231932
v 0.106746 -0.006838 0.257709
v 0.054419 -0.006838 0.273582
v 0.000000 -0.006838 0.278942
v -0.054419 -0.006838 0.273582
v -0.106747 -0.006838 0.257709
v -0.154972 -0.006838 0.231931
v -0.197242 -0.006838 0.197242
v -0.231932 -0.006838 0.154972
v -0.257709 -0.006838 0.106746
v -0.273582 -0.006838 0.054419
v -0.278942 -0.006838 -0.000000
v -0.273582 -0.006838 -0.054419
v -0.257708 -0.006838 -0.106747
v -0.231931 -0.006838 -0.154972
v -0.197241 -0.006838 -0.197242
v -0.154971 -0.006838 -0.231932
v -0.106746 -0.006838 -0.257709
v -0.054418 -0.006838 -0.273582
v 0.273582 0.165096 -0.054419
v 0.197242 0.165096 0.197242
v 0.154972 0.165096 0.231932
v 0.231932 0.165096 -0.154972
v 0.257709 0.165096 0.106746
v 0.231932 0.165096 0.154972
v 0.154972 0.165096 -0.231932
v 0.197242 0.165096 -0.197242
v 0.106746 0.165096 -0.257709
v 0.273582 0.165096 0.054419
v 0.278942 0.165096 0.000000
v 0.257709 0.165096 -0.106746
v 0.106746 0.165096 0.257709
v 2.523255 0.165096 0.260496
v 0.106746 -0.006589 0.257709
v 0.273582 -0.006589 0.054419
v 0.273582 0.170111 0.054419
v 0.273582 0.170111 -0.054419
v 0.278942 0.170111 0.000000
v 0.257709 0.170111 -0.106746
v 0.257709 0.170111 0.106746
v 0.154972 0.170111 0.231932
v 0.197242 0.170111 0.197242
v 0.231932 0.170111 0.154972
v 0.231932 0.170111 -0.154972
v 0.197242 0.170111 -0.197242
v 0.106746 0.170111 0.257709
v 0.054419 0.170111 0.273582
v -0.054419 0.170111 0.273582
v 0.000000 0.170111 0.278942
v -0.154972 0.170111 0.231931
v -0.106747 0.170111 0.257709
v -0.197242 0.170111 0.197242
v 0.154972 0.170111 -0.231932
v 0.106746 0.170111 -0.257709
v 0.054419 0.170111 -0.273582
v 0.000000 0.170111 -0.278942
v -0.054418 0.170111 -0.273582
v -0.154971 0.170111 -0.231932
v -0.106746 0.170111 -0.257709
v -0.231932 0.170111 0.154972
v -0.257709 0.170111 0.106746
v -0.273582 0.170111 0.054419
v -0.278942 0.170111 0.000000
v -0.273582 0.170111 -0.054419
v -0.257708 0.170111 -0.106747
v -0.231931 0.170111 -0.154972
v -0.197241 0.170111 -0.197242
vt 0.067074 0.677941
vt 0.057692 0.677309
vt 0.057692 0.677309
vt 0.051062 0.718727
vt 0.055430 0.717765
vt 0.055430 0.718727
vt 0.094444 0.715091
vt 0.032727 0.717712
vt 0.032727 0.715091
vt 0.035263 0.715091
vt 0.034188 0.715088
vt 0.034188 0.715091
vt 0.034188 0.715091
vt 0.035263 0.715088
vt 0.035263 0.715091
vt 0.051062 0.713347
vt 0.051055 0.712702
vt 0.051062 0.712702
vt 0.051055 0.718078
vt 0.076095 0.679812
vt 0.051055 0.717342
vt 0.057690 0.743081
vt 0.067073 0.742449
vt 0.057690 0.743081
vt 0.091696 0.733449
vt 0.084409 0.737539
vt 0.084409 0.737539
vt 0.051062 0.715820
vt 0.055430 0.714841
vt 0.055430 0.715820
vt 0.032727 0.717712
vt 0.094444 0.715091
vt 0.032727 0.715091
vt 0.039287 0.740578
vt 0.030973 0.737538
vt 0.039287 0.740578
vt 0.051062 0.716543
vt 0.051055 0.715713
vt 0.051062 0.715713
vt 0.067073 0.742449
vt 0.076094 0.740578
vt 0.055430 0.712793
vt 0.051062 0.711736
vt 0.055430 0.711736
vt 0.048309 0.742449
vt 0.048309 0.742449
vt 0.032961 0.717789
vt 0.017705 0.728465
vt 0.032961 0.717712
vt 0.051062 0.717765
vt 0.031630 0.715088
vt 0.031630 0.717789
vt 0.031630 0.715088
vt 0.051055 0.714882
vt 0.051062 0.714882
vt 0.051062 0.712793
vt 0.023686 0.686941
vt 0.017705 0.691924
vt 0.017705 0.691924
vt 0.030974 0.682851
vt 0.023686 0.686941
vt 0.051055 0.714083
vt 0.051062 0.714083
vt 0.023685 0.733449
vt 0.030973 0.737538
vt 0.379625 0.738433
vt 0.388186 0.739985
vt 0.365022 0.958979
vt 0.032961 0.715091
vt 0.034188 0.715088
vt 0.030245 0.715088
vt 0.031630 0.717789
vt 0.097677 0.691925
vt 0.091697 0.686941
vt 0.091697 0.686941
vt 0.102121 0.722780
vt 0.097677 0.728466
vt 0.097677 0.728466
vt 0.084410 0.682851
vt 0.084410 0.682851
vt 0.039288 0.679812
vt 0.030974 0.682851
vt 0.032961 0.715088
vt 0.032961 0.715091
vt 0.051062 0.718724
vt 0.051055 0.718078
vt 0.051062 0.718078
vt 0.094444 0.719689
vt 0.036146 0.718078
vt 0.036802 0.717342
vt 0.051055 0.713347
vt 0.076095 0.679812
vt 0.067074 0.677941
vt 0.051062 0.719689
vt 0.055430 0.719689
vt 0.048310 0.677941
vt 0.039288 0.679812
vt 0.051055 0.717342
vt 0.051055 0.716543
vt 0.037342 0.715713
vt 0.035263 0.718724
vt 0.025227 0.712702
vt 0.013261 0.697610
vt 0.013261 0.697610
vt 0.048310 0.677941
vt 0.051062 0.717342
vt 0.030245 0.715088
vt 0.028861 0.717789
vt 0.028861 0.715088
vt 0.030245 0.717789
vt 0.091696 0.733449
vt 0.023685 0.733449
vt 0.027529 0.715088
vt 0.028861 0.717789
vt 0.028861 0.715088
vt 0.027529 0.717789
vt 0.027529 0.715088
vt 0.030245 0.717789
vt 0.097677 0.691925
vt 0.026302 0.715088
vt 0.435000 0.691925
vt 0.442181 0.716611
vt 0.385631 0.742449
vt 0.076094 0.740578
vt 0.094444 0.717712
vt 0.035263 0.715088
vt 0.055557 0.718078
vt 0.051062 0.714841
vt 0.094444 0.717712
vt 0.017705 0.728465
vt 0.032961 0.717712
vt 0.032961 0.717789
vt 0.032961 0.715088
vt 0.436932 0.723672
vt 0.437388 0.722773
vt 0.437638 0.961541
vt 0.435030 0.728387
vt 0.427506 0.958966
vt 0.414551 0.738433
vt 0.429355 0.732520
vt 0.422440 0.735912
vt 0.417374 0.957221
vt 0.396892 0.955667
vt 0.405991 0.739985
vt 0.386587 0.955856
vt 0.397088 0.740509
vt 0.353893 0.961541
vt 0.354473 0.722773
vt 0.354929 0.723672
vt 0.359146 0.728387
vt 0.364821 0.732520
vt 0.371736 0.735912
vt 0.102121 0.722780
vt 0.051055 0.718724
vt 0.032961 0.711778
vt 0.032727 0.711736
vt 0.094444 0.711736
vt 0.034188 0.712172
vt 0.093777 0.712793
vt 0.036802 0.714083
vt 0.035263 0.712702
vt 0.036146 0.713347
vt 0.092964 0.714841
vt 0.037206 0.714882
vt 0.092915 0.715820
vt 0.037342 0.715713
vt 0.093320 0.717765
vt 0.037206 0.716543
vt 0.093774 0.718727
vt 0.032727 0.719689
vt 0.032961 0.719647
vt 0.034188 0.719253
vt 0.035263 0.718724
vt 0.034188 0.719253
vt 0.032961 0.719647
vt 0.031630 0.719889
vt 0.030245 0.719971
vt 0.028861 0.719889
vt 0.027529 0.719647
vt 0.026302 0.719253
vt 0.025227 0.718724
vt 0.024344 0.718078
vt 0.023688 0.717342
vt 0.023284 0.716543
vt 0.023148 0.715713
vt 0.023284 0.714882
vt 0.023688 0.714083
vt 0.024344 0.713347
vt 0.026302 0.712172
vt 0.027529 0.711778
vt 0.028861 0.711536
vt 0.030245 0.711454
vt 0.031630 0.711536
vt 0.032961 0.711778
vt 0.034188 0.712172
vt 0.035263 0.712702
vt 0.036146 0.713347
vt 0.036802 0.714083
vt 0.037206 0.714882
vt 0.037206 0.716543
vt 0.036802 0.717342
vt 0.036146 0.718078
vt 0.027529 0.717789
vt 0.376610 0.740578
vt 0.355027 0.728465
vt 0.368295 0.737538
vt 0.361008 0.733449
vt 0.350584 0.722779
vt 0.347847 0.716610
vt 0.346923 0.710194
vt 0.347847 0.703779
vt 0.350584 0.697610
vt 0.355028 0.691924
vt 0.361009 0.686941
vt 0.368296 0.682851
vt 0.376611 0.679812
vt 0.404397 0.677941
vt 0.385632 0.677941
vt 0.395014 0.677309
vt 0.413418 0.679812
vt 0.421732 0.682851
vt 0.429020 0.686941
vt 0.439444 0.697610
vt 0.442181 0.703779
vt 0.443105 0.710195
vt 0.439444 0.722780
vt 0.421731 0.737539
vt 0.435000 0.728466
vt 0.429019 0.733449
vt 0.413417 0.740578
vt 0.404395 0.742449
vt 0.395013 0.743081
vn -0.9952 -0.0000 0.0980
vn 0.9622 0.0000 -0.2723
vn 0.0000 -0.0000 1.0000
vn 0.6344 0.0000 -0.7730
vn 0.6344 0.0000 0.7730
vn 0.7730 0.0000 -0.6344
vn -0.8819 -0.0000 0.4714
vn 0.9952 0.0000 0.0980
vn 0.7730 -0.0000 0.6344
vn 0.9995 0.0000 0.0301
vn 0.0000 0.0000 -1.0000
vn 0.8819 0.0000 -0.4714
vn 0.9569 0.0000 0.2903
vn 0.9352 -0.0000 0.3540
vn 0.9952 0.0000 -0.0980
vn 0.4714 0.0000 -0.8819
vn 0.9569 0.0000 -0.2903
vn 0.9923 -0.0000 -0.1237
vn 0.2903 0.0000 -0.9569
vn 0.2903 -0.0000 0.9569
vn 0.2905 0.0028 0.9569
vn 0.9728 0.0000 0.2316
vn -0.6344 0.0000 -0.7730
vn -0.7730 0.0000 -0.6344
vn -0.0000 1.0000 0.0000
vn 0.4714 0.0000 0.8819
vn 0.0980 0.0000 -0.9952
vn -0.6344 0.0000 0.7730
vn -0.7730 -0.0000 0.6344
vn -0.8819 0.0000 -0.4714
vn 0.0000 -1.0000 -0.0000
vn -0.9569 -0.0000 0.2903
vn 0.9227 0.0000 -0.3856
vn -0.9569 -0.0000 -0.2903
vn -0.4714 0.0000 -0.8819
vn -0.9952 -0.0000 -0.0980
vn 0.8819 0.0000 0.4714
vn -0.0980 -0.0000 0.9952
vn 0.0980 -0.0000 0.9952
vn -0.2903 0.0000 -0.9569
vn -0.2903 -0.0000 0.9569
vn -0.0980 0.0000 -0.9952
vn -0.4714 -0.0000 0.8819
vn 0.2902 0.0000 -0.9570
vn 0.2892 -0.0026 -0.9573
vn 0.2903 -0.0001 -0.9569
vn 0.2903 0.0028 -0.9569
vn 0.2902 0.0000 0.9570
vn 0.2903 0.0028 0.9569
vn 0.2903 -0.0001 0.9569
vn 0.2918 0.0024 0.9565
usemtl Material
s off
f 52/1/1 104/2/1 53/3/1
f 6/4/2 15/5/2 1/6/2
f 5/7/3 16/8/3 17/9/3
f 27/10/4 23/11/4 25/12/4
f 42/13/5 39/14/5 40/15/5
f 11/16/6 26/17/6 27/18/6
f 50/19/7 102/20/7 51/21/7
f 79/22/8 70/23/8 71/24/8
f 83/25/9 66/26/9 84/27/9
f 3/28/10 2/29/10 10/30/10
f 20/31/11 12/32/11 21/33/11
f 72/34/12 85/35/12 80/36/12
f 76/37/8 32/38/8 33/39/8
f 77/40/13 65/41/13 70/23/13
f 8/42/14 12/43/14 14/44/14
f 79/22/15 61/45/15 78/46/15
f 95/47/16 67/48/16 69/49/16
f 80/36/17 61/45/17 72/34/17
f 3/28/18 15/5/18 9/50/18
f 20/31/19 21/33/19 18/51/19
f 88/52/20 44/53/21 16/8/20
f 33/39/15 30/54/15 31/55/15
f 2/29/22 7/56/22 8/42/22
f 57/57/23 99/58/23 58/59/23
f 56/60/24 108/61/24 57/57/24
f 31/55/17 29/62/17 13/63/17
f 68/64/6 85/35/6 64/65/6
f 72/66/25 61/67/25 8/68/25
f 75/69/26 41/70/26 42/13/26
f 19/71/27 96/72/27 18/51/27
f 48/73/28 93/74/28 49/75/28
f 87/76/26 63/77/26 82/78/26
f 49/75/29 101/79/29 50/80/29
f 55/81/30 107/82/30 56/60/30
f 25/12/16 24/83/16 22/84/16
f 40/85/9 37/86/9 38/87/9
f 5/88/31 38/89/31 35/90/31
f 13/63/12 28/91/12 11/16/12
f 51/92/32 103/93/32 52/1/32
f 5/94/33 1/6/33 74/95/33
f 54/96/34 106/97/34 55/81/34
f 76/37/13 36/98/13 34/99/13
f 32/100/31 39/101/31 57/102/31
f 58/59/35 100/103/35 59/104/35
f 53/3/36 105/105/36 54/96/36
f 38/87/37 36/98/37 35/106/37
f 45/107/38 89/108/38 46/109/38
f 44/53/39 90/110/39 45/107/39
f 83/25/5 63/77/5 62/111/5
f 67/48/4 86/112/4 68/64/4
f 59/113/40 98/114/40 60/115/40
f 46/109/41 92/116/41 47/117/41
f 60/115/42 97/118/42 19/71/42
f 47/117/43 91/119/43 48/120/43
f 91/121/25 88/122/25 78/123/25
f 81/124/37 66/26/37 65/41/37
f 52/1/1 103/93/1 104/2/1
f 6/4/2 9/50/2 15/5/2
f 5/7/3 74/125/3 16/8/3
f 27/10/4 26/126/4 23/11/4
f 42/13/5 41/70/5 39/14/5
f 11/16/6 28/91/6 26/17/6
f 50/19/7 101/127/7 102/20/7
f 79/22/8 77/40/8 70/23/8
f 83/25/9 62/111/9 66/26/9
f 3/28/10 4/128/10 2/29/10
f 20/31/11 14/129/11 12/32/11
f 72/34/12 64/65/12 85/35/12
f 76/37/8 34/99/8 32/38/8
f 77/40/13 81/124/13 65/41/13
f 8/42/14 7/56/14 12/43/14
f 79/22/15 71/24/15 61/45/15
f 95/47/16 94/130/16 67/48/16
f 80/36/17 78/46/17 61/45/17
f 3/28/18 10/30/18 15/5/18
f 95/47/44 69/49/44 20/31/44
f 21/33/44 22/84/44 24/83/45
f 96/72/46 95/47/46 20/31/46
f 21/33/47 24/83/19 18/51/47
f 96/72/19 20/31/19 18/51/19
f 16/8/48 73/131/48 87/132/48
f 44/53/20 43/133/49 17/9/49
f 43/133/48 75/69/48 17/9/48
f 16/8/50 87/132/50 88/52/50
f 44/53/51 17/9/20 16/8/20
f 33/39/15 32/38/15 30/54/15
f 2/29/22 4/128/22 7/56/22
f 57/57/23 108/61/23 99/58/23
f 56/60/24 107/82/24 108/61/24
f 31/55/17 30/54/17 29/62/17
f 68/64/6 86/112/6 85/35/6
f 73/134/25 16/135/25 74/136/25
f 73/134/25 74/136/25 63/137/25
f 74/136/25 1/138/25 65/139/25
f 63/137/25 74/136/25 62/140/25
f 62/140/25 74/136/25 66/141/25
f 1/138/25 15/142/25 65/139/25
f 66/141/25 74/136/25 65/139/25
f 15/142/25 10/143/25 70/144/25
f 65/139/25 15/142/25 70/144/25
f 10/143/25 2/145/25 71/146/25
f 70/144/25 10/143/25 71/146/25
f 8/68/25 14/147/25 72/66/25
f 14/147/25 20/148/25 69/149/25
f 2/145/25 8/68/25 61/67/25
f 71/146/25 2/145/25 61/67/25
f 14/147/25 69/149/25 67/150/25
f 14/147/25 67/150/25 68/151/25
f 14/147/25 68/151/25 64/152/25
f 14/147/25 64/152/25 72/66/25
f 75/69/26 43/133/26 41/70/26
f 19/71/27 97/118/27 96/72/27
f 48/73/28 91/119/28 93/74/28
f 87/76/26 73/153/26 63/77/26
f 49/75/29 93/74/29 101/79/29
f 55/81/30 106/97/30 107/82/30
f 25/12/16 23/11/16 24/83/16
f 40/85/9 39/154/9 37/86/9
f 22/155/31 21/156/31 12/157/31
f 22/155/31 12/157/31 25/158/31
f 12/157/31 7/159/31 13/160/31
f 25/158/31 12/157/31 27/161/31
f 27/161/31 12/157/31 11/162/31
f 7/159/31 4/163/31 31/164/31
f 11/162/31 12/157/31 13/160/31
f 4/163/31 3/165/31 33/166/31
f 13/160/31 7/159/31 31/164/31
f 3/165/31 9/167/31 76/168/31
f 31/164/31 4/163/31 33/166/31
f 6/169/31 5/88/31 35/90/31
f 5/88/31 17/170/31 75/171/31
f 9/167/31 6/169/31 35/90/31
f 33/166/31 3/165/31 76/168/31
f 5/88/31 75/171/31 42/172/31
f 5/88/31 42/172/31 40/173/31
f 76/168/31 9/167/31 35/90/31
f 5/88/31 40/173/31 38/89/31
f 13/63/12 29/62/12 28/91/12
f 51/92/32 102/20/32 103/93/32
f 5/94/33 6/4/33 1/6/33
f 54/96/34 105/105/34 106/97/34
f 76/37/13 35/106/13 36/98/13
f 39/101/31 41/174/31 43/175/31
f 43/175/31 44/176/31 39/101/31
f 44/176/31 45/177/31 39/101/31
f 45/177/31 46/178/31 47/179/31
f 47/179/31 48/180/31 45/177/31
f 48/180/31 49/181/31 45/177/31
f 49/181/31 50/182/31 51/183/31
f 51/183/31 52/184/31 49/181/31
f 52/184/31 53/185/31 49/181/31
f 53/185/31 54/186/31 55/187/31
f 55/187/31 56/188/31 57/102/31
f 57/102/31 58/189/31 59/190/31
f 59/190/31 60/191/31 57/102/31
f 60/191/31 19/192/31 57/102/31
f 19/192/31 18/193/31 24/194/31
f 24/194/31 23/195/31 26/196/31
f 26/196/31 28/197/31 29/198/31
f 29/198/31 30/199/31 26/196/31
f 30/199/31 32/100/31 26/196/31
f 32/100/31 34/200/31 39/101/31
f 34/200/31 36/201/31 39/101/31
f 36/201/31 37/202/31 39/101/31
f 53/185/31 55/187/31 49/181/31
f 55/187/31 57/102/31 49/181/31
f 19/192/31 24/194/31 57/102/31
f 24/194/31 26/196/31 57/102/31
f 39/101/31 45/177/31 57/102/31
f 45/177/31 49/181/31 57/102/31
f 26/196/31 32/100/31 57/102/31
f 58/59/35 99/58/35 100/103/35
f 53/3/36 104/2/36 105/105/36
f 38/87/37 37/86/37 36/98/37
f 45/107/38 90/110/38 89/108/38
f 44/53/39 88/52/39 90/110/39
f 83/25/5 82/78/5 63/77/5
f 67/48/4 94/130/4 86/112/4
f 59/113/40 100/203/40 98/114/40
f 46/109/41 89/108/41 92/116/41
f 60/115/42 98/114/42 97/118/42
f 47/117/43 92/116/43 91/119/43
f 78/123/25 80/204/25 94/205/25
f 80/204/25 85/206/25 94/205/25
f 85/206/25 86/207/25 94/205/25
f 94/205/25 95/208/25 96/209/25
f 96/209/25 97/210/25 98/211/25
f 98/211/25 100/212/25 99/213/25
f 99/213/25 108/214/25 107/215/25
f 107/215/25 106/216/25 103/217/25
f 106/216/25 105/218/25 103/217/25
f 105/218/25 104/219/25 103/217/25
f 103/217/25 102/220/25 91/121/25
f 102/220/25 101/221/25 91/121/25
f 101/221/25 93/222/25 91/121/25
f 91/121/25 92/223/25 89/224/25
f 89/224/25 90/225/25 88/122/25
f 88/122/25 87/226/25 84/227/25
f 87/226/25 82/228/25 84/227/25
f 82/228/25 83/229/25 84/227/25
f 84/227/25 81/230/25 77/231/25
f 77/231/25 79/232/25 78/123/25
f 94/205/25 96/209/25 78/123/25
f 96/209/25 98/211/25 78/123/25
f 98/211/25 99/213/25 107/215/25
f 91/121/25 89/224/25 88/122/25
f 84/227/25 77/231/25 88/122/25
f 77/231/25 78/123/25 88/122/25
f 98/211/25 107/215/25 78/123/25
f 107/215/25 103/217/25 78/123/25
f 103/217/25 91/121/25 78/123/25
f 81/124/37 84/27/37 66/26/37
