# Blender v2.82 (sub 7) OBJ File: ''
# www.blender.org
mtllib LMove1v5.mtl
o Movement1_Cylinder_LongMovement
v 3.508665 0.165096 0.197462
v 3.476861 0.165096 -0.057099
v 3.474933 -0.006589 0.007008
v 3.476861 -0.006589 -0.057099
v 3.535007 -0.006589 0.260496
v 3.508665 -0.006589 0.197462
v 3.508798 -0.006589 -0.191263
v 3.508798 0.165096 -0.191263
v 3.490824 -0.006589 0.134428
v 3.474933 0.165096 0.007008
v 0.231932 -0.006589 -0.154972
v 3.535007 -0.006589 -0.260496
v 0.257709 -0.006589 -0.106746
v 3.535007 0.165096 -0.260496
v 3.490824 0.165096 0.134428
v 0.097556 0.165096 0.260496
v 0.097556 -0.006589 0.260496
v 0.054419 -0.006838 -0.273582
v 0.000000 -0.006838 -0.278942
v 0.097556 0.165096 -0.260496
v 0.097556 -0.006589 -0.260496
v 0.106746 -0.006589 -0.257709
v 0.154972 -0.006838 -0.231932
v 0.106746 -0.006838 -0.257709
v 0.154972 -0.006589 -0.231932
v 0.197242 -0.006838 -0.197242
v 0.197242 -0.006589 -0.197242
v 0.231932 -0.006838 -0.154972
v 0.257709 -0.006838 -0.106746
v 0.273582 -0.006838 -0.054419
v 0.273582 -0.006589 -0.054419
v 0.278942 -0.006838 -0.000000
v 0.278942 -0.006589 -0.000000
v 0.273582 -0.006838 0.054419
v 0.257709 -0.006589 0.106746
v 0.257709 -0.006838 0.106746
v 0.231932 -0.006838 0.154972
v 0.231932 -0.006589 0.154972
v 0.197242 -0.006838 0.197242
v 0.197242 -0.006589 0.197242
v 0.154972 -0.006838 0.231932
v 0.154972 -0.006589 0.231932
v 0.106746 -0.006838 0.257709
v 0.054419 -0.006838 0.273582
v 0.000000 -0.006838 0.278942
v -0.054419 -0.006838 0.273582
v -0.106747 -0.006838 0.257709
v -0.154972 -0.006838 0.231931
v -0.197242 -0.006838 0.197242
v -0.231932 -0.006838 0.154972
v -0.257709 -0.006838 0.106746
v -0.273582 -0.006838 0.054419
v -0.278942 -0.006838 -0.000000
v -0.273582 -0.006838 -0.054419
v -0.257708 -0.006838 -0.106747
v -0.231931 -0.006838 -0.154972
v -0.197241 -0.006838 -0.197242
v -0.154971 -0.006838 -0.231932
v -0.106746 -0.006838 -0.257709
v -0.054418 -0.006838 -0.273582
v 0.273582 0.165096 -0.054419
v 0.197242 0.165096 0.197242
v 0.154972 0.165096 0.231932
v 0.231932 0.165096 -0.154972
v 0.257709 0.165096 0.106746
v 0.231932 0.165096 0.154972
v 3.535007 0.165096 0.260496
v 0.154972 0.165096 -0.231932
v 0.197242 0.165096 -0.197242
v 0.106746 0.165096 -0.257709
v 0.273582 0.165096 0.054419
v 0.278942 0.165096 0.000000
v 0.257709 0.165096 -0.106746
v 0.106746 0.165096 0.257709
v 0.106746 -0.006589 0.257709
v 0.273582 -0.006589 0.054419
v 0.273582 0.165491 0.054419
v 0.278942 0.165491 0.000000
v 0.273582 0.165491 -0.054419
v 0.257709 0.165491 -0.106746
v 0.257709 0.165491 0.106746
v 0.231932 0.165491 -0.154972
v 0.231932 0.165491 0.154972
v 0.106746 0.165491 0.257709
v 0.154972 0.165491 0.231932
v 0.197242 0.165491 0.197242
v 0.197242 0.165491 -0.197242
v 0.054419 0.165491 0.273582
v 0.000000 0.165491 0.278942
v -0.054419 0.165491 0.273582
v -0.106747 0.165491 0.257709
v -0.154972 0.165491 0.231931
v -0.197242 0.165491 0.197242
v 0.154972 0.165492 -0.231932
v 0.106746 0.165491 -0.257709
v 0.054419 0.165491 -0.273582
v 0.000000 0.165491 -0.278942
v -0.054418 0.165491 -0.273582
v -0.106746 0.165491 -0.257709
v -0.154971 0.165491 -0.231932
v -0.231932 0.165491 0.154972
v -0.257709 0.165491 0.106746
v -0.273582 0.165491 0.054419
v -0.278942 0.165491 0.000000
v -0.273582 0.165491 -0.054419
v -0.257708 0.165491 -0.106747
v -0.231931 0.165491 -0.154972
v -0.197241 0.165491 -0.197242
vt 0.053869 0.979391
vt 0.053873 0.978868
vt 0.053873 0.979391
vt 0.213407 0.628057
vt 0.206162 0.632152
vt 0.213407 0.628057
vt 0.053869 0.979914
vt 0.053873 0.979914
vt 0.219352 0.623067
vt 0.223770 0.617373
vt 0.223770 0.617373
vt 0.188928 0.637069
vt 0.179600 0.637702
vt 0.179600 0.637702
vt 0.056703 0.979391
vt 0.053869 0.979914
vt 0.056703 0.979914
vt 0.041866 0.978885
vt 0.042543 0.978888
vt 0.041866 0.978888
vt 0.170273 0.637069
vt 0.042543 0.978885
vt 0.041866 0.978888
vt 0.042543 0.978888
vt 0.135430 0.617374
vt 0.139848 0.623067
vt 0.135430 0.617374
vt 0.053869 0.981286
vt 0.053873 0.980880
vt 0.053873 0.981286
vt 0.037674 0.980586
vt 0.036901 0.978885
vt 0.036901 0.980586
vt 0.039383 0.978885
vt 0.040255 0.980586
vt 0.040255 0.978885
vt 0.170273 0.637069
vt 0.161305 0.635195
vt 0.161305 0.635195
vt 0.053873 0.976887
vt 0.056623 0.977552
vt 0.053873 0.977552
vt 0.053869 0.978365
vt 0.053873 0.977901
vt 0.053873 0.978365
vt 0.036224 0.978885
vt 0.036901 0.980586
vt 0.036224 0.980586
vt 0.053873 0.980683
vt 0.056623 0.981289
vt 0.053873 0.981289
vt 0.038512 0.978885
vt 0.039383 0.980586
vt 0.038512 0.980586
vt 0.053869 0.980880
vt 0.053873 0.980417
vt 0.053869 0.977495
vt 0.056703 0.977901
vt 0.056703 0.977495
vt 0.053869 0.978868
vt 0.053869 0.980417
vt 0.056703 0.980880
vt 0.056703 0.980417
vt 0.056623 0.981894
vt 0.053873 0.981894
vt 0.153039 0.632152
vt 0.053869 0.977901
vt 0.053873 0.977495
vt 0.038512 0.978885
vt 0.039383 0.980586
vt 0.041866 0.978885
vt 0.041093 0.978888
vt 0.053873 0.979458
vt 0.056623 0.978842
vt 0.056623 0.979458
vt 0.037674 0.978885
vt 0.037674 0.980586
vt 0.036901 0.978885
vt 0.197896 0.635195
vt 0.206162 0.632152
vt 0.197896 0.635195
vt 0.145794 0.628057
vt 0.145794 0.628057
vt 0.188928 0.637069
vt 0.219352 0.623067
vt 0.040946 0.980538
vt 0.040946 0.978888
vt 0.040255 0.980586
vt 0.040255 0.978885
vt 0.224248 0.616289
vt 0.096008 0.980538
vt 0.053873 0.978842
vt 0.038512 0.976761
vt 0.043766 0.978868
vt 0.040255 0.982020
vt 0.095588 0.977552
vt 0.043766 0.978868
vt 0.043512 0.978365
vt 0.036224 0.980586
vt 0.053869 0.978365
vt 0.056703 0.978365
vt 0.053869 0.981286
vt 0.053869 0.980880
vt 0.041093 0.978885
vt 0.041093 0.978888
vt 0.056703 0.978868
vt 0.053869 0.979391
vt 0.040946 0.978888
vt 0.220935 0.964269
vt 0.040946 0.980538
vt 0.153039 0.632152
vt 0.037674 0.978885
vt 0.038512 0.980586
vt 0.053869 0.978868
vt 0.039383 0.978885
vt 0.042543 0.978885
vt 0.139848 0.623067
vt 0.056623 0.976887
vt 0.056623 0.980683
vt 0.053869 0.980417
vt 0.053869 0.977901
vt 0.053869 0.977495
vt 0.041093 0.978885
vt 0.096008 0.978888
vt 0.039383 0.982072
vt 0.038512 0.982020
vt 0.037674 0.981868
vt 0.036901 0.981620
vt 0.036224 0.981286
vt 0.035668 0.980880
vt 0.035255 0.980417
vt 0.035001 0.979914
vt 0.034915 0.979391
vt 0.035001 0.978868
vt 0.035255 0.978365
vt 0.035668 0.977901
vt 0.036224 0.977495
vt 0.036901 0.977162
vt 0.037674 0.976914
vt 0.039383 0.976710
vt 0.040255 0.976761
vt 0.041093 0.976914
vt 0.041866 0.977162
vt 0.042543 0.977495
vt 0.043099 0.977901
vt 0.043512 0.978365
vt 0.043852 0.979391
vt 0.043766 0.979914
vt 0.043512 0.980417
vt 0.043099 0.980880
vt 0.042543 0.981286
vt 0.041866 0.981620
vt 0.041093 0.981868
vt 0.095586 0.981289
vt 0.096008 0.981894
vt 0.043512 0.980417
vt 0.040946 0.981894
vt 0.041093 0.981868
vt 0.041866 0.981620
vt 0.095300 0.980683
vt 0.042543 0.981286
vt 0.043099 0.980880
vt 0.095046 0.979458
vt 0.043766 0.979914
vt 0.095077 0.978842
vt 0.043852 0.979391
vt 0.040946 0.976887
vt 0.096008 0.976887
vt 0.041093 0.976914
vt 0.041866 0.977162
vt 0.042543 0.977495
vt 0.043099 0.977901
vt 0.036224 0.978885
vt 0.056703 0.981286
vt 0.096008 0.978888
vt 0.160633 0.636153
vt 0.169919 0.638063
vt 0.151928 0.961002
vt 0.198520 0.636153
vt 0.133843 0.617985
vt 0.160635 0.574125
vt 0.225311 0.617986
vt 0.225806 0.616880
vt 0.218807 0.963793
vt 0.220736 0.623790
vt 0.209475 0.960988
vt 0.198520 0.636153
vt 0.214580 0.628877
vt 0.207078 0.633052
vt 0.200144 0.959088
vt 0.181281 0.957396
vt 0.189234 0.638064
vt 0.171790 0.957601
vt 0.179576 0.638708
vt 0.141679 0.963792
vt 0.133348 0.616879
vt 0.133843 0.617985
vt 0.138417 0.623789
vt 0.144573 0.628876
vt 0.152074 0.633051
vt 0.225312 0.592293
vt 0.228129 0.598590
vt 0.225311 0.617986
vt 0.229080 0.605140
vt 0.228128 0.611689
vt 0.220736 0.623790
vt 0.214580 0.628877
vt 0.207078 0.633052
vt 0.189234 0.638064
vt 0.179576 0.638708
vt 0.169919 0.638063
vt 0.160633 0.636153
vt 0.152074 0.633051
vt 0.144573 0.628876
vt 0.138417 0.623789
vt 0.131026 0.611687
vt 0.130075 0.605138
vt 0.131026 0.598589
vt 0.133843 0.592292
vt 0.138418 0.586488
vt 0.144575 0.581401
vt 0.152076 0.577227
vt 0.169921 0.572214
vt 0.179578 0.571569
vt 0.189236 0.572215
vt 0.198522 0.574125
vt 0.207080 0.577227
vt 0.214581 0.581402
vt 0.220737 0.586489
vn 0.9952 0.0000 -0.0980
vn 0.7730 -0.0001 0.6344
vn 0.9952 0.0000 0.0980
vn 0.4714 0.0000 0.8819
vn -0.9952 -0.0000 0.0980
vn 0.6344 0.0000 0.7730
vn 0.6344 0.0000 -0.7730
vn 0.4714 0.0000 -0.8819
vn 0.7730 0.0000 0.6344
vn -0.4714 0.0000 -0.8819
vn 0.0980 0.0000 -0.9952
vn 0.9569 0.0000 -0.2903
vn 0.9352 0.0000 0.3540
vn 0.8819 0.0000 -0.4714
vn -0.6344 -0.0000 0.7730
vn 0.9622 0.0000 -0.2723
vn -0.0980 -0.0000 0.9952
vn 0.8819 0.0000 0.4714
vn -0.7730 0.0000 -0.6344
vn -0.8819 0.0000 0.4714
vn 0.9227 0.0000 -0.3856
vn 0.9569 0.0000 0.2903
vn 0.7730 0.0000 -0.6344
vn -0.0980 0.0000 -0.9952
vn -0.9569 -0.0000 0.2903
vn 0.9995 0.0000 0.0301
vn -0.2903 -0.0000 0.9569
vn -0.4714 -0.0000 0.8819
vn 0.8819 0.0000 0.4713
vn 0.6344 -0.0002 -0.7730
vn 0.2903 0.0000 -0.9569
vn 0.2903 -0.0000 0.9569
vn 0.2905 0.0028 0.9569
vn 0.0000 0.0000 -1.0000
vn 0.9728 -0.0000 0.2316
vn -0.0000 -1.0000 -0.0000
vn -0.6344 0.0000 -0.7730
vn -0.8819 0.0000 -0.4714
vn 0.9923 0.0000 -0.1238
vn -0.7730 -0.0000 0.6344
vn -0.9952 0.0000 -0.0980
vn 0.0000 -0.0000 1.0000
vn -0.2903 0.0000 -0.9569
vn -0.9569 0.0000 -0.2903
vn 0.0980 -0.0000 0.9952
vn 0.6344 -0.0001 0.7730
vn 0.2902 0.0000 -0.9570
vn 0.2892 -0.0026 -0.9573
vn 0.2903 -0.0018 -0.9569
vn 0.2903 0.0028 -0.9569
vn 0.2902 0.0000 0.9570
vn 0.2903 -0.0018 0.9569
vn 0.2903 0.0028 0.9569
vn 0.2918 0.0024 0.9565
vn 0.7730 -0.0001 -0.6344
vn 0.0000 1.0000 -0.0000
usemtl Material
s off
f 32/1/1 31/2/1 33/3/1
f 62/4/2 83/5/2 86/6/2
f 34/7/3 33/3/3 76/8/3
f 63/9/4 84/10/4 74/11/4
f 77/12/3 72/13/3 78/14/3
f 104/15/5 52/16/5 103/17/5
f 41/18/6 40/19/6 42/20/6
f 61/21/1 78/14/1 72/13/1
f 26/22/7 25/23/7 27/24/7
f 95/25/8 68/26/8 70/27/8
f 39/28/9 38/29/9 40/30/9
f 99/31/10 58/32/10 100/33/10
f 19/34/11 96/35/11 18/36/11
f 79/37/12 73/38/12 80/39/12
f 12/40/13 8/41/13 7/42/13
f 29/43/14 11/44/14 13/45/14
f 49/46/15 92/47/15 93/48/15
f 9/49/16 1/50/16 6/51/16
f 46/52/17 89/53/17 90/54/17
f 37/55/18 35/56/18 38/29/18
f 57/57/19 107/58/19 108/59/19
f 30/60/12 13/45/12 31/2/12
f 51/61/20 101/62/20 102/63/20
f 6/51/21 67/64/21 5/65/21
f 73/38/14 82/66/14 80/39/14
f 35/56/22 34/7/22 76/8/22
f 28/67/23 27/68/23 11/44/23
f 60/69/24 97/70/24 19/34/24
f 23/71/8 22/72/8 25/23/8
f 52/16/25 102/63/25 103/17/25
f 3/73/26 2/74/26 10/75/26
f 47/76/27 90/54/27 91/77/27
f 47/76/28 92/47/28 48/78/28
f 81/79/29 66/80/29 65/81/29
f 68/26/30 87/82/30 69/83/30
f 81/79/22 71/84/22 77/12/22
f 62/4/6 85/85/6 63/9/6
f 20/86/31 21/87/31 18/36/31
f 88/88/32 44/89/33 16/90/32
f 14/91/34 21/87/34 20/86/34
f 4/92/35 8/41/35 2/74/35
f 60/93/36 30/94/36 44/95/36
f 7/96/36 31/97/36 13/98/36
f 58/32/37 108/99/37 100/33/37
f 107/58/38 55/100/38 106/101/38
f 10/75/39 9/49/39 3/73/39
f 49/102/40 101/62/40 50/103/40
f 43/104/4 42/20/4 75/105/4
f 105/106/41 53/107/41 104/15/41
f 17/108/42 67/109/42 16/110/42
f 69/83/23 82/66/23 64/111/23
f 59/112/43 98/113/43 60/69/43
f 105/106/44 55/100/44 54/114/44
f 45/115/45 88/88/45 89/53/45
f 32/1/1 30/60/1 31/2/1
f 62/4/9 66/80/9 83/5/9
f 34/7/3 32/1/3 33/3/3
f 63/9/4 85/85/4 84/10/4
f 77/12/3 71/84/3 72/13/3
f 104/15/5 53/107/5 52/16/5
f 41/18/6 39/116/6 40/19/6
f 61/21/1 79/37/1 78/14/1
f 26/22/7 23/71/7 25/23/7
f 95/25/8 94/117/8 68/26/8
f 39/28/9 37/55/9 38/29/9
f 99/31/10 59/112/10 58/32/10
f 19/34/11 97/70/11 96/35/11
f 79/37/12 61/21/12 73/38/12
f 12/40/13 14/118/13 8/41/13
f 29/43/14 28/67/14 11/44/14
f 49/46/15 48/78/15 92/47/15
f 9/49/16 15/119/16 1/50/16
f 46/52/17 45/115/17 89/53/17
f 37/55/18 36/120/18 35/56/18
f 57/57/19 56/121/19 107/58/19
f 30/60/12 29/43/12 13/45/12
f 51/61/20 50/103/20 101/62/20
f 6/51/21 1/50/21 67/64/21
f 73/38/14 64/111/14 82/66/14
f 35/56/22 36/120/22 34/7/22
f 28/67/23 26/122/23 27/68/23
f 60/69/24 98/113/24 97/70/24
f 23/71/8 24/123/8 22/72/8
f 52/16/25 51/61/25 102/63/25
f 3/73/26 4/92/26 2/74/26
f 47/76/27 46/52/27 90/54/27
f 47/76/28 91/77/28 92/47/28
f 81/79/18 83/5/18 66/80/18
f 68/26/7 94/117/7 87/82/7
f 81/79/22 65/81/22 71/84/22
f 62/4/46 86/6/46 85/85/46
f 21/87/47 22/72/47 24/123/48
f 96/35/49 95/25/49 20/86/49
f 95/25/47 70/27/47 20/86/47
f 21/87/50 24/123/31 18/36/50
f 96/35/31 20/86/31 18/36/31
f 74/11/51 84/10/51 16/90/51
f 84/10/52 88/88/52 16/90/52
f 44/89/32 43/104/53 17/108/53
f 43/104/51 75/105/51 17/108/51
f 44/89/54 17/108/32 16/90/32
f 14/91/34 12/124/34 21/87/34
f 4/92/35 7/42/35 8/41/35
f 44/95/36 45/125/36 46/126/36
f 46/126/36 47/127/36 48/128/36
f 48/128/36 49/129/36 50/130/36
f 50/130/36 51/131/36 48/128/36
f 51/131/36 52/132/36 48/128/36
f 52/132/36 53/133/36 54/134/36
f 54/134/36 55/135/36 52/132/36
f 55/135/36 56/136/36 52/132/36
f 56/136/36 57/137/36 58/138/36
f 58/138/36 59/139/36 60/93/36
f 60/93/36 19/140/36 18/141/36
f 18/141/36 24/142/36 23/143/36
f 23/143/36 26/144/36 28/145/36
f 28/145/36 29/146/36 23/143/36
f 29/146/36 30/94/36 23/143/36
f 30/94/36 32/147/36 34/148/36
f 34/148/36 36/149/36 37/150/36
f 37/150/36 39/151/36 41/152/36
f 41/152/36 43/153/36 37/150/36
f 43/153/36 44/95/36 37/150/36
f 44/95/36 46/126/36 48/128/36
f 56/136/36 58/138/36 60/93/36
f 60/93/36 18/141/36 30/94/36
f 18/141/36 23/143/36 30/94/36
f 30/94/36 34/148/36 44/95/36
f 34/148/36 37/150/36 44/95/36
f 44/95/36 48/128/36 60/93/36
f 48/128/36 52/132/36 60/93/36
f 52/132/36 56/136/36 60/93/36
f 6/154/36 5/155/36 35/156/36
f 5/155/36 17/157/36 75/158/36
f 5/155/36 75/158/36 42/159/36
f 9/160/36 6/154/36 35/156/36
f 5/155/36 42/159/36 40/161/36
f 5/155/36 40/161/36 38/162/36
f 3/163/36 9/160/36 76/164/36
f 5/155/36 38/162/36 35/156/36
f 4/165/36 3/163/36 33/166/36
f 9/160/36 35/156/36 76/164/36
f 21/167/36 12/168/36 22/169/36
f 12/168/36 7/96/36 13/98/36
f 22/169/36 12/168/36 25/170/36
f 7/96/36 4/165/36 31/97/36
f 3/163/36 76/164/36 33/166/36
f 25/170/36 12/168/36 27/171/36
f 27/171/36 12/168/36 11/172/36
f 4/165/36 33/166/36 31/97/36
f 11/172/36 12/168/36 13/98/36
f 58/32/37 57/173/37 108/99/37
f 107/58/38 56/121/38 55/100/38
f 10/75/39 15/119/39 9/49/39
f 49/102/40 93/174/40 101/62/40
f 43/104/4 41/18/4 42/20/4
f 105/106/41 54/114/41 53/107/41
f 17/108/42 5/175/42 67/109/42
f 69/83/55 87/82/55 82/66/55
f 59/112/43 99/31/43 98/113/43
f 105/106/44 106/101/44 55/100/44
f 45/115/45 44/89/45 88/88/45
s 1
f 73/176/56 61/177/56 8/178/56
f 81/179/56 95/180/56 106/181/56
f 74/182/56 16/183/56 67/184/56
f 74/182/56 67/184/56 63/185/56
f 67/184/56 1/186/56 65/187/56
f 63/185/56 67/184/56 62/188/56
f 62/188/56 67/184/56 66/189/56
f 1/186/56 15/190/56 65/187/56
f 66/189/56 67/184/56 65/187/56
f 15/190/56 10/191/56 71/192/56
f 65/187/56 15/190/56 71/192/56
f 10/191/56 2/193/56 72/194/56
f 71/192/56 10/191/56 72/194/56
f 8/178/56 14/195/56 73/176/56
f 14/195/56 20/196/56 70/197/56
f 2/193/56 8/178/56 61/177/56
f 72/194/56 2/193/56 61/177/56
f 14/195/56 70/197/56 68/198/56
f 14/195/56 68/198/56 69/199/56
f 14/195/56 69/199/56 64/200/56
f 14/195/56 64/200/56 73/176/56
f 91/201/56 90/202/56 84/203/56
f 90/202/56 89/204/56 84/203/56
f 89/204/56 88/205/56 84/203/56
f 84/203/56 85/206/56 81/179/56
f 85/206/56 86/207/56 81/179/56
f 86/207/56 83/208/56 81/179/56
f 81/179/56 77/209/56 78/210/56
f 78/210/56 79/211/56 81/179/56
f 79/211/56 80/212/56 81/179/56
f 80/212/56 82/213/56 87/214/56
f 87/214/56 94/215/56 80/212/56
f 94/215/56 95/180/56 80/212/56
f 95/180/56 96/216/56 97/217/56
f 97/217/56 98/218/56 95/180/56
f 98/218/56 99/219/56 95/180/56
f 99/219/56 100/220/56 108/221/56
f 108/221/56 107/222/56 106/181/56
f 106/181/56 105/223/56 104/224/56
f 104/224/56 103/225/56 106/181/56
f 103/225/56 102/226/56 106/181/56
f 102/226/56 101/227/56 93/228/56
f 93/228/56 92/229/56 102/226/56
f 92/229/56 91/201/56 102/226/56
f 99/219/56 108/221/56 95/180/56
f 108/221/56 106/181/56 95/180/56
f 91/201/56 84/203/56 81/179/56
f 81/179/56 80/212/56 95/180/56
f 106/181/56 102/226/56 91/201/56
f 91/201/56 81/179/56 106/181/56
