# Blender 3.5.1
# www.blender.org
mtllib NewMediumMeshB.mtl
o Movement2_Cylinder.001_Cylinder
v -0.200619 0.165096 -0.200620
v -0.200619 -0.006589 -0.200620
v -0.162388 -0.006589 -0.231995
v -0.235903 0.165096 -0.157626
v -0.235903 -0.006589 -0.157626
v -0.203297 -0.006589 -0.197357
v -0.262638 -0.006589 0.106874
v -0.262670 -0.006589 0.106768
v -0.262670 0.165096 0.106768
v -0.111616 -0.006238 -0.260496
v -0.111616 0.164745 -0.260496
v -0.116815 0.165096 -0.257717
v -0.203297 0.165096 0.197357
v -0.200620 -0.006589 0.200619
v -0.203297 -0.006589 0.197357
v -0.162389 0.165096 0.231995
v -0.157626 -0.006589 0.235903
v -0.162389 -0.006589 0.231995
v -0.262664 -0.006589 -0.106788
v -0.262635 -0.006589 -0.106883
v -0.262635 0.165096 -0.106883
v -0.237231 -0.006589 0.155141
v -0.237290 -0.006589 0.155031
v -0.237231 0.165096 0.155141
v -0.278267 0.165096 -0.055351
v -0.278357 0.165096 -0.054443
v -0.278357 -0.006589 -0.054443
v -0.237284 -0.006589 -0.155041
v -0.237232 -0.006589 -0.155141
v -0.237231 0.165096 -0.155141
v -0.116815 0.165096 0.257717
v -0.111616 -0.006238 0.260496
v -0.116815 -0.006589 0.257717
v -0.278349 -0.006589 0.054518
v -0.278358 -0.006589 0.054423
v -0.283719 0.165096 -0.000000
v -0.157625 -0.006589 -0.235904
v -0.157625 0.165096 -0.235904
v -0.162388 0.165096 -0.231995
v -0.203297 0.165096 -0.197357
v -0.278267 -0.006589 0.055351
v -0.278267 0.165096 0.055351
v -0.262638 0.165096 0.106874
v -0.262122 0.165096 0.108574
v -0.262122 -0.006589 0.108574
v -0.116815 -0.006589 -0.257717
v -0.111616 -0.006589 -0.260496
v -0.111616 0.165096 -0.260496
v -0.235904 -0.006589 0.157625
v -0.235904 0.165096 0.157625
v -0.200620 0.165096 0.200619
v -0.157626 0.165096 0.235903
v -0.262122 -0.006589 -0.108575
v -0.262122 0.165096 -0.108575
v -0.262664 0.165096 -0.106788
v -0.278267 -0.006589 -0.055351
v -0.237290 0.165096 0.155031
v -0.278347 -0.006589 -0.054537
v -0.278347 0.165096 -0.054538
v -0.278366 0.165096 -0.054348
v -0.278366 -0.006589 -0.054348
v -0.283719 -0.006589 0.000000
v -0.237284 0.165096 -0.155041
v -0.111616 0.165096 0.260496
v -0.111616 0.164745 0.260496
v -0.111616 -0.006589 0.260496
v -0.283710 -0.006589 0.000085
v -0.283710 0.165096 0.000085
v -0.278358 0.165096 0.054423
v -0.278349 0.165096 0.054518
v -2.519137 0.165096 -0.197462
v -2.519738 0.079308 -0.260496
v -2.519137 0.079308 -0.197462
v -2.519137 0.165096 0.057099
v -2.519137 0.079308 -0.007008
v -2.519137 0.079308 0.057099
v -2.519137 -0.006589 -0.007008
v -2.519137 -0.006589 0.057099
v -2.519738 -0.006589 -0.260496
v -2.519137 -0.006589 -0.197462
v -2.519137 -0.006589 0.191263
v -2.519137 0.079308 0.121207
v -2.519137 -0.006589 0.121207
v -2.519137 0.165096 0.191263
v -2.519137 0.079308 0.191263
v -2.519137 0.079308 -0.070718
v -2.519137 -0.006589 -0.134428
v -2.519137 -0.006589 -0.070718
v -2.519137 0.165096 -0.070718
v -2.519137 0.079308 -0.134428
v -2.519137 0.165096 -0.007008
v -2.519137 0.165096 0.121207
v -2.519738 0.165096 0.260496
v -2.519738 0.079308 0.260496
v -2.519738 -0.006589 0.260496
v -2.519137 0.165096 -0.134428
v -2.519738 0.165096 -0.260496
vn 0.6344 -0.0000 0.7730
vn 0.7730 -0.0000 0.6344
vn 0.9576 -0.0000 -0.2880
vn 0.4714 -0.0000 0.8819
vn 0.7730 -0.0000 -0.6344
vn 0.6343 -0.0000 -0.7731
vn 0.9579 -0.0000 0.2872
vn 0.8808 -0.0000 -0.4735
vn 0.9951 -0.0000 0.0986
vn 0.8846 -0.0000 0.4664
vn 0.4714 -0.0000 -0.8819
vn 0.9953 0.0001 -0.0971
vn 0.9569 -0.0000 -0.2903
vn 0.9573 -0.0000 -0.2891
vn 0.9569 -0.0000 -0.2904
vn 0.4714 0.0006 0.8819
vn 0.6344 -0.0000 -0.7730
vn 0.9570 -0.0000 0.2901
vn 0.9575 -0.0000 0.2885
vn 0.9569 -0.0000 0.2903
vn 0.9568 -0.0000 0.2907
vn 0.8819 -0.0000 -0.4714
vn 0.8807 -0.0000 -0.4736
vn 0.8820 -0.0000 -0.4712
vn 0.9952 -0.0000 0.0978
vn 0.3555 -0.9181 -0.1754
vn 0.3548 -0.9184 -0.1751
vn 0.3542 -0.9187 -0.1748
vn 0.9955 -0.0000 0.0952
vn 0.9952 -0.0000 0.0980
vn 0.9955 -0.0000 0.0951
vn 0.9951 -0.0000 0.0988
vn 0.8818 -0.0000 0.4716
vn 0.8838 -0.0000 0.4679
vn 0.8819 -0.0000 0.4714
vn 0.8820 -0.0000 0.4713
vn 0.9950 -0.0000 -0.1000
vn 0.9950 -0.0006 -0.1000
vn 0.9952 -0.0000 -0.0980
vn 0.9953 -0.0000 -0.0971
vn -1.0000 -0.0000 0.0095
vn -1.0000 -0.0000 -0.0000
vn -0.0000 -1.0000 -0.0000
vn -1.0000 -0.0000 -0.0087
vn -0.0000 -0.0000 -1.0000
vn -0.0000 1.0000 -0.0003
vn -0.0000 1.0000 -0.0001
vn -0.0000 1.0000 -0.0000
vn -0.0000 -0.0000 1.0000
vn -0.0000 1.0000 0.0001
vt 0.067093 0.717015
vt 0.054268 0.713417
vt 0.360426 0.686542
vt 0.067093 0.714999
vt 0.050907 0.713417
vt 0.067093 0.713417
vt 0.067841 0.714999
vt 0.067841 0.713048
vt 0.054268 0.713922
vt 0.367839 0.682383
vt 0.050907 0.713922
vt 0.066402 0.713922
vt 0.050907 0.713455
vt 0.067041 0.713455
vt 0.050907 0.717028
vt 0.065879 0.717028
vt 0.050907 0.717027
vt 0.065878 0.717027
vt 0.054268 0.717027
vt 0.413422 0.679227
vt 0.068835 0.715003
vt 0.068835 0.717011
vt 0.068733 0.717015
vt 0.068733 0.712746
vt 0.350583 0.696422
vt 0.054268 0.718091
vt 0.429039 0.686227
vt 0.050907 0.718130
vt 0.067093 0.714999
vt 0.067093 0.718130
vt 0.050907 0.718091
vt 0.067041 0.718091
vt 0.067841 0.717015
vt 0.435011 0.691050
vt 0.067935 0.714999
vt 0.067935 0.718544
vt 0.067841 0.714999
vt 0.067841 0.718498
vt 0.050907 0.714519
vt 0.065878 0.714519
vt 0.050907 0.714518
vt 0.065879 0.714518
vt 0.054268 0.714518
vt 0.376587 0.679231
vt 0.050907 0.717595
vt 0.066376 0.717595
vt 0.050907 0.717594
vt 0.066375 0.717594
vt 0.054268 0.717595
vt 0.421761 0.682226
vt 0.054268 0.715123
vt 0.385472 0.677388
vt 0.054268 0.715134
vt 0.385628 0.677377
vt 0.050907 0.715134
vt 0.065571 0.715134
vt 0.050907 0.713952
vt 0.066375 0.713952
vt 0.050907 0.713951
vt 0.066376 0.713951
vt 0.054268 0.713951
vt 0.368267 0.682226
vt 0.068733 0.717015
vt 0.068733 0.718800
vt 0.439446 0.696423
vt 0.068835 0.715003
vt 0.068733 0.714999
vt 0.068733 0.718800
vt 0.050907 0.716414
vt 0.065571 0.716414
vt 0.050907 0.716412
vt 0.065571 0.716412
vt 0.054268 0.715773
vt 0.395014 0.676745
vt 0.067935 0.714999
vt 0.067935 0.713002
vt 0.067935 0.717015
vt 0.354343 0.691611
vt 0.067841 0.717015
vt 0.355017 0.691050
vt 0.054268 0.713455
vt 0.360989 0.686227
vt 0.050907 0.716423
vt 0.065573 0.716423
vt 0.054268 0.716423
vt 0.404557 0.677388
vt 0.054268 0.717028
vt 0.413440 0.679231
vt 0.065879 0.717028
vt 0.054268 0.717048
vt 0.065889 0.717048
vt 0.050907 0.717048
vt 0.065889 0.717048
vt 0.068733 0.714999
vt 0.068733 0.712746
vt 0.068835 0.712714
vt 0.068835 0.714999
vt 0.068835 0.712714
vt 0.068835 0.717015
vt 0.050907 0.717625
vt 0.066402 0.717625
vt 0.054268 0.717625
vt 0.422190 0.682383
vt 0.054268 0.718130
vt 0.067093 0.717015
vt 0.429602 0.686543
vt 0.067935 0.717015
vt 0.435685 0.691612
vt 0.050907 0.714498
vt 0.065889 0.714498
vt 0.054268 0.714498
vt 0.376296 0.679291
vt 0.054268 0.714519
vt 0.376604 0.679228
vt 0.050907 0.715123
vt 0.065573 0.715123
vt 0.054268 0.717594
vt 0.421742 0.682220
vt 0.066375 0.717594
vt 0.050907 0.715133
vt 0.065571 0.715133
vt 0.385612 0.677379
vt 0.054268 0.715135
vt 0.385645 0.677376
vt 0.050907 0.715135
vt 0.065571 0.715135
vt 0.050907 0.715773
vt 0.065466 0.715773
vt 0.054268 0.713952
vt 0.368285 0.682220
vt 0.068835 0.718833
vt 0.068835 0.717015
vt 0.068835 0.717011
vt 0.068835 0.718833
vt 0.068835 0.714999
vt 0.050907 0.715774
vt 0.065466 0.715774
vt 0.054268 0.715774
vt 0.395029 0.676747
vt 0.054268 0.716412
vt 0.404397 0.677378
vt 0.054268 0.716414
vt 0.404414 0.677378
vt 0.054268 0.713454
vt 0.363333 0.461876
vt 0.052589 0.712714
vt 0.021695 0.716008
vt 0.052589 0.713454
vt 0.054268 0.716444
vt 0.404182 0.465058
vt 0.052589 0.715691
vt 0.052589 0.716444
vt 0.050907 0.715691
vt 0.022871 0.715691
vt 0.050907 0.716444
vt 0.022833 0.716444
vt 0.050907 0.712714
vt 0.021695 0.712714
vt 0.021695 0.714999
vt 0.050907 0.713454
vt 0.022210 0.713454
vt 0.050907 0.718020
vt 0.022208 0.718020
vt 0.052589 0.717197
vt 0.050907 0.717197
vt 0.022592 0.717197
vt 0.054268 0.718020
vt 0.425711 0.461864
vt 0.052589 0.718020
vt 0.052589 0.714943
vt 0.050907 0.714194
vt 0.022560 0.714194
vt 0.050907 0.714943
vt 0.022757 0.714943
vt 0.054268 0.714943
vt 0.383672 0.464669
vt 0.052589 0.714194
vt 0.054268 0.715691
vt 0.393895 0.465251
vt 0.054268 0.717197
vt 0.414469 0.463829
vt 0.054268 0.718833
vt 0.021695 0.718833
vt 0.436821 0.459242
vt 0.021695 0.717015
vt 0.052589 0.718833
vt 0.021695 0.716008
vt 0.050907 0.718833
vt 0.021695 0.718833
vt 0.021695 0.714999
vt 0.054268 0.714194
vt 0.373448 0.463661
vt 0.054268 0.712714
vt 0.021695 0.712714
vt 0.353218 0.459241
vt 0.021695 0.717015
s 0
usemtl Material.004
f 1/1/1 2/4/1 3/7/1
f 4/9/2 5/11/2 6/13/2
f 7/15/3 8/17/3 9/19/3
f 10/21/4 11/22/4 12/23/4
f 13/26/5 14/28/5 15/31/5
f 16/33/6 17/35/6 18/37/6
f 19/39/7 20/41/7 21/43/7
f 22/45/8 23/47/8 24/49/8
f 25/51/9 26/53/9 27/55/9
f 28/57/10 29/59/10 30/61/10
f 31/63/11 32/66/11 33/67/11
f 34/69/12 35/71/12 36/73/12
f 3/7/1 37/75/1 38/77/1
f 38/77/1 39/79/1 3/7/1
f 39/79/1 1/1/1 3/7/1
f 6/13/2 2/5/2 1/2/2
f 1/2/2 40/81/2 6/13/2
f 40/81/2 4/9/2 6/13/2
f 8/17/13 41/83/13 42/85/13
f 9/19/14 43/87/14 7/15/14
f 43/87/15 44/90/15 7/15/15
f 8/17/13 42/85/13 9/19/13
f 44/90/15 45/92/15 7/15/15
f 12/23/4 38/77/4 46/94/4
f 38/77/4 37/75/4 46/94/4
f 46/94/4 47/97/4 10/21/4
f 11/22/16 48/99/16 12/23/16
f 46/94/4 10/21/4 12/23/4
f 15/31/5 49/100/5 13/26/5
f 49/100/5 50/102/5 13/26/5
f 13/26/5 51/104/5 14/28/5
f 18/37/17 14/29/17 51/105/17
f 16/33/6 52/107/6 17/35/6
f 18/37/17 51/105/17 16/33/17
f 20/41/18 53/109/18 54/111/18
f 21/43/19 55/113/19 19/39/19
f 55/113/20 25/51/20 19/39/20
f 20/41/21 54/111/21 21/43/21
f 25/51/20 56/115/20 19/39/20
f 23/47/22 45/92/22 44/90/22
f 44/90/22 57/117/22 23/47/22
f 57/117/23 24/49/23 23/47/23
f 24/49/24 50/102/24 49/100/24
f 49/100/24 22/45/24 24/49/24
f 58/120/25 56/115/25 25/51/25
f 25/52/26 59/122/27 26/54/28
f 26/53/29 60/123/29 27/55/29
f 60/123/30 36/73/30 61/125/30
f 27/55/31 60/123/31 61/125/31
f 36/73/30 62/127/30 61/125/30
f 27/55/32 58/120/32 25/51/32
f 29/59/33 5/11/33 4/9/33
f 30/61/34 63/129/34 28/57/34
f 63/129/35 54/111/35 28/57/35
f 29/59/36 4/9/36 30/61/36
f 54/111/35 53/109/35 28/57/35
f 33/67/11 17/35/11 52/107/11
f 31/63/11 64/132/11 65/133/11
f 33/67/11 52/107/11 31/63/11
f 32/66/11 66/135/11 33/67/11
f 31/63/11 65/133/11 32/66/11
f 67/136/37 62/127/37 36/73/37
f 36/73/38 68/138/38 34/69/38
f 68/138/39 69/140/39 34/69/39
f 70/142/39 42/85/39 41/83/39
f 69/140/40 70/142/40 34/69/40
f 35/71/39 67/136/39 36/73/39
f 70/142/39 41/83/39 34/69/39
s 1
f 71/144/41 72/146/41 73/148/41
f 74/149/42 75/151/42 76/152/42
f 76/152/42 77/153/42 78/155/42
f 73/148/41 79/157/41 80/160/41
f 81/162/42 82/164/42 83/165/42
f 84/167/42 82/164/42 85/169/42
f 86/170/42 87/171/42 88/173/42
f 89/175/42 90/177/42 86/170/42
f 91/178/42 86/170/42 75/151/42
f 75/151/42 88/173/42 77/153/42
f 83/165/42 76/152/42 78/155/42
f 92/180/42 76/152/42 82/164/42
f 7/16/43 23/48/43 81/163/43
f 93/182/44 85/169/44 94/186/44
f 94/186/44 81/162/44 95/188/44
f 90/177/42 80/160/42 87/171/42
f 96/191/42 73/148/42 90/177/42
f 72/147/45 11/22/45 10/21/45
f 21/44/46 63/130/47 71/145/48
f 71/144/41 97/193/41 72/146/41
f 74/149/42 91/178/42 75/151/42
f 76/152/42 75/151/42 77/153/42
f 73/148/41 72/146/41 79/157/41
f 81/162/42 85/169/42 82/164/42
f 84/167/42 92/180/42 82/164/42
f 86/170/42 90/177/42 87/171/42
f 89/175/42 96/191/42 90/177/42
f 91/178/42 89/175/42 86/170/42
f 75/151/42 86/170/42 88/173/42
f 83/165/42 82/164/42 76/152/42
f 92/180/42 74/149/42 76/152/42
f 80/161/43 29/60/43 28/58/43
f 79/158/43 47/96/43 46/95/43
f 46/95/43 3/8/43 79/158/43
f 87/172/43 20/42/43 19/40/43
f 3/8/43 6/14/43 79/158/43
f 6/14/43 29/60/43 79/158/43
f 88/174/43 58/121/43 27/56/43
f 28/58/43 20/42/43 80/161/43
f 77/154/43 27/56/43 61/126/43
f 19/40/43 58/121/43 87/172/43
f 77/154/43 67/137/43 78/156/43
f 78/156/43 34/70/43 83/166/43
f 77/154/43 61/126/43 62/128/43
f 81/163/43 22/46/43 95/189/43
f 83/166/43 7/16/43 81/163/43
f 78/156/43 67/137/43 35/72/43
f 34/70/43 8/18/43 83/166/43
f 93/182/44 84/167/44 85/169/44
f 94/186/44 85/169/44 81/162/44
f 90/177/42 73/148/42 80/160/42
f 96/191/42 71/144/42 73/148/42
f 97/196/45 11/22/45 72/147/45
f 95/190/49 32/66/49 94/187/49
f 93/183/48 64/131/48 31/64/48
f 31/65/48 16/34/48 93/184/48
f 84/168/48 24/50/50 57/118/50
f 16/34/48 13/27/48 93/184/48
f 13/27/48 24/50/50 93/184/48
f 92/181/48 43/88/48 9/20/48
f 57/118/50 43/88/48 84/168/48
f 74/150/48 70/143/48 69/141/48
f 9/20/48 70/143/48 92/181/48
f 91/179/48 68/139/48 36/74/48
f 74/150/48 69/141/48 68/139/48
f 91/179/48 26/54/47 89/176/48
f 91/179/48 36/74/48 60/124/48
f 89/176/48 59/122/47 96/192/48
f 71/145/48 30/62/47 97/195/48
f 96/192/48 21/44/46 71/145/48
f 59/122/47 55/114/46 96/192/48
f 32/66/49 65/133/49 94/187/49
f 30/62/47 40/82/48 97/195/48
f 65/133/49 93/185/49 94/187/49
f 39/80/48 12/25/48 97/195/48
f 12/24/48 48/98/48 97/194/48
f 10/21/45 79/159/45 72/147/45
f 33/68/43 66/134/43 95/189/43
f 18/38/43 33/68/43 95/189/43
f 15/32/43 18/38/43 95/189/43
f 22/46/43 15/32/43 95/189/43
f 40/82/48 39/80/48 97/195/48
f 7/16/43 45/93/48 23/48/43
f 21/44/46 54/112/43 63/130/47
f 80/161/43 79/158/43 29/60/43
f 46/95/43 37/76/48 3/8/43
f 87/172/43 80/161/43 20/42/43
f 3/8/43 2/6/48 6/14/43
f 6/14/43 5/12/48 29/60/43
f 88/174/43 87/172/43 58/121/43
f 28/58/43 53/110/48 20/42/43
f 77/154/43 88/174/43 27/56/43
f 19/40/43 56/116/48 58/121/43
f 77/154/43 62/128/43 67/137/43
f 78/156/43 35/72/43 34/70/43
f 81/163/43 23/48/43 22/46/43
f 83/166/43 8/18/43 7/16/43
f 34/70/43 41/84/48 8/18/43
f 97/196/45 48/99/45 11/22/45
f 95/190/49 66/135/49 32/66/49
f 31/65/48 52/108/43 16/34/48
f 84/168/48 93/184/48 24/50/50
f 16/34/48 51/106/43 13/27/48
f 13/27/48 50/103/43 24/50/50
f 92/181/48 84/168/48 43/88/48
f 57/119/50 44/91/43 43/89/48
f 74/150/48 92/181/48 70/143/48
f 9/20/48 42/86/43 70/143/48
f 91/179/48 74/150/48 68/139/48
f 91/179/48 60/124/48 26/54/47
f 89/176/48 26/54/47 59/122/47
f 71/145/48 63/130/47 30/62/47
f 96/192/48 55/114/46 21/44/46
f 59/122/47 25/52/43 55/114/46
f 30/62/47 4/10/43 40/82/48
f 65/133/49 64/132/49 93/185/49
f 39/80/48 38/78/43 12/25/48
f 10/21/45 47/97/45 79/159/45
f 18/38/43 17/36/48 33/68/43
f 15/32/43 14/30/48 18/38/43
f 22/46/43 49/101/48 15/32/43
f 40/82/48 1/3/43 39/80/48
