# Blender v2.82 (sub 7) OBJ File: ''
# www.blender.org
mtllib Range2.mtl
o Range2_Scale2
v 1.499211 0.205625 0.500000
v 1.500695 0.018131 0.500000
v 1.500695 0.018131 -0.500000
v 1.499211 0.205625 -0.500000
v -1.500695 0.181869 -0.500000
v -1.499211 -0.005625 -0.500000
v -1.499211 -0.005625 0.500000
v -1.500695 0.181869 0.500000
vt 0.151906 0.172562
vt 0.156008 0.159438
vt 0.156008 0.172562
vt 0.151387 0.159438
vt 0.155488 0.172562
vt 0.155488 0.159438
vt 0.318292 0.299488
vt 0.484268 -0.000727
vt 0.483887 0.299317
vt 0.120490 0.159438
vt 0.186110 0.172562
vt 0.120490 0.172562
vt 0.120457 0.167321
vt 0.186110 0.165172
vt 0.186078 0.167632
vt 0.186110 0.165172
vt 0.120457 0.167321
vt 0.186078 0.167632
vt 0.151906 0.159438
vt 0.151387 0.172562
vt 0.318478 -0.000424
vt 0.186110 0.159438
vt 0.120490 0.164860
vt 0.120490 0.164860
vn 1.0000 0.0079 0.0000
vn -1.0000 -0.0079 -0.0000
vn -0.0079 1.0000 0.0000
vn 0.0079 -1.0000 -0.0000
vn -0.0000 -0.0000 1.0000
vn -0.0000 0.0000 -1.0000
usemtl Material
s 1
f 2/1/1 4/2/1 1/3/1
f 6/4/2 8/5/2 5/6/2
f 8/7/3 4/8/3 5/9/3
f 6/10/4 2/11/4 7/12/4
f 8/13/5 2/14/5 1/15/5
f 3/16/6 5/17/6 4/18/6
f 2/1/1 3/19/1 4/2/1
f 6/4/2 7/20/2 8/5/2
f 8/7/3 1/21/3 4/8/3
f 6/10/4 3/22/4 2/11/4
f 8/13/5 7/23/5 2/14/5
f 3/16/6 6/24/6 5/17/6
