# Blender v2.82 (sub 7) OBJ File: ''
# www.blender.org
mtllib Range4.mtl
o Range4_Scale4
v 4.000000 0.193750 0.500000
v 4.000000 0.006250 0.500000
v 4.000000 0.006250 -0.500000
v 4.000000 0.193750 -0.500000
v -4.000000 0.193750 -0.500000
v -4.000000 0.006250 -0.500000
v -4.000000 0.006250 0.500000
v -4.000000 0.193750 0.500000
vt 0.188241 0.182635
vt 0.190687 0.174806
vt 0.190687 0.182635
vt 0.188241 0.174806
vt 0.190687 0.182635
vt 0.190687 0.174806
vt 0.662438 0.800272
vt 0.828699 -0.000073
vt 0.829362 0.799899
vt 0.137025 0.174806
vt 0.241414 0.182635
vt 0.137025 0.182635
vt 0.137025 0.178133
vt 0.241414 0.179601
vt 0.137025 0.179601
vt 0.241414 0.178133
vt 0.137025 0.179601
vt 0.241414 0.179601
vt 0.188241 0.174806
vt 0.188241 0.182635
vt 0.665082 -0.000102
vt 0.241414 0.174806
vt 0.241414 0.178133
vt 0.137025 0.178133
vn 1.0000 -0.0000 0.0000
vn -1.0000 0.0000 0.0000
vn 0.0000 1.0000 0.0000
vn 0.0000 -1.0000 -0.0000
vn 0.0000 -0.0000 1.0000
vn 0.0000 0.0000 -1.0000
usemtl Material
s 1
f 2/1/1 4/2/1 1/3/1
f 6/4/2 8/5/2 5/6/2
f 8/7/3 4/8/3 5/9/3
f 6/10/4 2/11/4 7/12/4
f 7/13/5 1/14/5 8/15/5
f 3/16/6 5/17/6 4/18/6
f 2/1/1 3/19/1 4/2/1
f 6/4/2 7/20/2 8/5/2
f 8/7/3 1/21/3 4/8/3
f 6/10/4 3/22/4 2/11/4
f 7/13/5 2/23/5 1/14/5
f 3/16/6 6/24/6 5/17/6
