# Blender v2.82 (sub 7) OBJ File: ''
# www.blender.org
mtllib Short1v2.mtl
o Movement_Template_Cylinder
v 1.547516 0.165096 0.197462
v 1.515713 0.165096 -0.057099
v 1.513785 -0.006589 0.007008
v 1.515713 -0.006589 -0.057099
v 1.573858 -0.006589 0.260496
v 1.547516 -0.006589 0.197462
v 1.547649 -0.006589 -0.191263
v 1.547649 0.165096 -0.191263
v 1.529675 -0.006589 0.134428
v 1.513785 0.165096 0.007008
v 0.257709 -0.006589 -0.106746
v 0.231932 -0.006589 -0.154972
v 1.573858 0.165096 -0.260496
v 1.573858 -0.006589 -0.260496
v 1.529675 0.165096 0.134428
v 0.097556 0.165096 0.260496
v 0.097556 -0.006589 0.260496
v 0.054419 -0.006838 -0.273582
v 0.000000 -0.006838 -0.278942
v 0.097556 0.165096 -0.260496
v 0.097556 -0.006589 -0.260496
v 0.106746 -0.006589 -0.257709
v 0.154972 -0.006838 -0.231932
v 0.106746 -0.006838 -0.257709
v 0.154972 -0.006589 -0.231932
v 0.197242 -0.006838 -0.197242
v 0.197242 -0.006589 -0.197242
v 0.231932 -0.006838 -0.154972
v 0.257709 -0.006838 -0.106746
v 0.273582 -0.006838 -0.054419
v 0.273582 -0.006589 -0.054419
v 0.278942 -0.006838 -0.000000
v 0.278942 -0.006589 -0.000000
v 0.273582 -0.006838 0.054419
v 0.257709 -0.006589 0.106746
v 0.257709 -0.006838 0.106746
v 0.231932 -0.006838 0.154972
v 0.231932 -0.006589 0.154972
v 0.197242 -0.006838 0.197242
v 0.197242 -0.006589 0.197242
v 0.154972 -0.006838 0.231932
v 0.154972 -0.006589 0.231932
v 0.106746 -0.006838 0.257709
v 0.054419 -0.006838 0.273582
v 0.000000 -0.006838 0.278942
v -0.054419 -0.006838 0.273582
v -0.106747 -0.006838 0.257709
v -0.154972 -0.006838 0.231931
v -0.197242 -0.006838 0.197242
v -0.231932 -0.006838 0.154972
v -0.257709 -0.006838 0.106746
v -0.273582 -0.006838 0.054419
v -0.278942 -0.006838 -0.000000
v -0.273582 -0.006838 -0.054419
v -0.257708 -0.006838 -0.106747
v -0.231931 -0.006838 -0.154972
v -0.197241 -0.006838 -0.197242
v -0.154971 -0.006838 -0.231932
v -0.106746 -0.006838 -0.257709
v -0.054418 -0.006838 -0.273582
v 0.273582 0.165096 -0.054419
v 0.197242 0.165096 0.197242
v 0.154972 0.165096 0.231932
v 0.231932 0.165096 -0.154972
v 0.257709 0.165096 0.106746
v 0.231932 0.165096 0.154972
v 0.154972 0.165096 -0.231932
v 0.197242 0.165096 -0.197242
v 0.106746 0.165096 -0.257709
v 0.278942 0.165096 0.000000
v 0.257709 0.165096 -0.106746
v 0.106746 0.165096 0.257709
v 0.273582 0.165096 0.054419
v 1.573858 0.165096 0.260496
v 0.106746 -0.006589 0.257709
v 0.273582 -0.006589 0.054419
v 0.273582 0.170111 0.054419
v 0.278942 0.170111 0.000000
v 0.273582 0.170111 -0.054419
v 0.257709 0.170111 0.106746
v 0.257709 0.170111 -0.106746
v 0.231932 0.170111 0.154972
v 0.231932 0.170111 -0.154972
v 0.197242 0.170111 0.197242
v 0.154972 0.170111 0.231932
v 0.197242 0.170111 -0.197242
v 0.106746 0.170111 0.257709
v 0.054419 0.170111 0.273582
v 0.000000 0.170111 0.278942
v -0.054419 0.170111 0.273582
v -0.106747 0.170111 0.257709
v -0.154972 0.170111 0.231931
v -0.197242 0.170111 0.197242
v 0.154972 0.170111 -0.231932
v 0.106746 0.170111 -0.257709
v 0.054419 0.170111 -0.273582
v 0.000000 0.170111 -0.278942
v -0.231932 0.170111 0.154972
v -0.257709 0.170111 0.106746
v -0.273582 0.170111 0.054419
v -0.278942 0.170111 0.000000
v -0.273582 0.170111 -0.054419
v -0.257708 0.170111 -0.106747
v -0.231931 0.170111 -0.154972
v -0.054418 0.170111 -0.273582
v -0.106746 0.170111 -0.257709
v -0.154971 0.170111 -0.231932
v -0.197241 0.170111 -0.197242
vt 0.060694 0.868893
vt 0.065751 0.867779
vt 0.065751 0.868893
vt 0.065751 0.860909
vt 0.060694 0.863280
vt 0.060694 0.860909
vt 0.070340 0.886570
vt 0.060802 0.886111
vt 0.070340 0.886570
vt 0.046647 0.863425
vt 0.045106 0.866552
vt 0.045106 0.863425
vt 0.060694 0.867775
vt 0.060687 0.867028
vt 0.060694 0.867028
vt 0.054060 0.863429
vt 0.052815 0.863425
vt 0.052815 0.863429
vt 0.046647 0.863425
vt 0.048250 0.866552
vt 0.048250 0.863425
vt 0.060694 0.865251
vt 0.060687 0.864289
vt 0.060694 0.864289
vt 0.052815 0.863429
vt 0.054060 0.863425
vt 0.054060 0.863429
vt 0.051613 0.884422
vt 0.051613 0.884422
vt 0.104746 0.876474
vt 0.097400 0.880636
vt 0.097400 0.880636
vt 0.043126 0.881570
vt 0.060694 0.863327
vt 0.060687 0.862402
vt 0.060694 0.862402
vt 0.115186 0.865767
vt 0.110751 0.871454
vt 0.110751 0.871454
vt 0.051394 0.863425
vt 0.051394 0.863429
vt 0.029523 0.872852
vt 0.035667 0.877663
vt 0.035667 0.877663
vt 0.060694 0.859685
vt 0.079861 0.885783
vt 0.104746 0.876474
vt 0.060694 0.866665
vt 0.065751 0.866665
vt 0.093832 0.867779
vt 0.055082 0.867028
vt 0.055841 0.866175
vt 0.060687 0.866175
vt 0.060694 0.866175
vt 0.056466 0.864289
vt 0.048250 0.869219
vt 0.040034 0.864289
vt 0.051124 0.866463
vt 0.051124 0.863429
vt 0.049853 0.863425
vt 0.049853 0.866552
vt 0.049853 0.863425
vt 0.115660 0.864690
vt 0.060687 0.867775
vt 0.065899 0.867028
vt 0.060687 0.867028
vt 0.094607 0.863429
vt 0.051124 0.866463
vt 0.051124 0.863429
vt 0.060687 0.861550
vt 0.065899 0.860803
vt 0.060687 0.860803
vt 0.043126 0.881570
vt 0.094607 0.863429
vt 0.543030 0.960230
vt 0.545802 0.827598
vt 0.554289 0.830451
vt 0.060687 0.863327
vt 0.065899 0.862402
vt 0.060687 0.862402
vt 0.060694 0.861550
vt 0.060687 0.860803
vt 0.060694 0.860803
vt 0.060687 0.861550
vt 0.060694 0.864413
vt 0.024930 0.867321
vt 0.024930 0.867321
vt 0.060687 0.864289
vt 0.065899 0.863327
vt 0.065899 0.861550
vt 0.045106 0.863425
vt 0.046647 0.866552
vt 0.065751 0.863280
vt 0.065751 0.864413
vt 0.049853 0.866552
vt 0.060687 0.865251
vt 0.043686 0.863425
vt 0.042441 0.866552
vt 0.042441 0.863425
vt 0.048250 0.866552
vt 0.048250 0.863425
vt 0.088998 0.883779
vt 0.088998 0.883779
vt 0.043686 0.863425
vt 0.045106 0.866552
vt 0.046647 0.866552
vt 0.065899 0.866175
vt 0.060687 0.866175
vt 0.051394 0.863429
vt 0.052815 0.863425
vt 0.079861 0.885783
vt 0.078966 0.822150
vt 0.060687 0.865251
vt 0.060687 0.863327
vt 0.621407 0.799318
vt 0.607423 0.822502
vt 0.537699 0.777815
vt 0.042441 0.863425
vt 0.043686 0.866552
vt 0.043686 0.866552
vt 0.065899 0.864289
vt 0.060694 0.867779
vt 0.060802 0.886111
vt 0.060687 0.867775
vt 0.054060 0.863425
vt 0.115186 0.865767
vt 0.029523 0.872852
vt 0.065751 0.859685
vt 0.051394 0.859734
vt 0.051124 0.859685
vt 0.094607 0.859685
vt 0.052815 0.860190
vt 0.093835 0.860909
vt 0.055082 0.861550
vt 0.054060 0.860803
vt 0.092895 0.863280
vt 0.055841 0.862402
vt 0.092838 0.864413
vt 0.056466 0.864289
vt 0.056309 0.863327
vt 0.093306 0.866665
vt 0.056309 0.865251
vt 0.094607 0.868893
vt 0.051124 0.868893
vt 0.051394 0.868843
vt 0.052815 0.868388
vt 0.054060 0.867775
vt 0.056309 0.865251
vt 0.054060 0.867775
vt 0.055841 0.866175
vt 0.055082 0.867028
vt 0.052815 0.868388
vt 0.051394 0.868843
vt 0.049853 0.869124
vt 0.046647 0.869124
vt 0.045106 0.868843
vt 0.043686 0.868388
vt 0.042441 0.867775
vt 0.041419 0.867028
vt 0.040660 0.866175
vt 0.040192 0.865251
vt 0.040192 0.863327
vt 0.040660 0.862402
vt 0.041419 0.861550
vt 0.042441 0.860803
vt 0.043686 0.860190
vt 0.045106 0.859734
vt 0.046647 0.859454
vt 0.048250 0.859359
vt 0.049853 0.859454
vt 0.054060 0.860803
vt 0.051394 0.859734
vt 0.052815 0.860190
vt 0.055082 0.861550
vt 0.055841 0.862402
vt 0.056309 0.863327
vt 0.115186 0.865767
vt 0.115186 0.865767
vt 0.065899 0.867775
vt 0.094607 0.866463
vt 0.094607 0.866463
vt 0.617863 0.811796
vt 0.618336 0.810719
vt 0.613448 0.961746
vt 0.613428 0.817482
vt 0.603589 0.959161
vt 0.600077 0.826664
vt 0.607423 0.822502
vt 0.593743 0.957465
vt 0.591675 0.829807
vt 0.573869 0.956148
vt 0.582537 0.831811
vt 0.563885 0.956524
vt 0.573017 0.832598
vt 0.532282 0.963160
vt 0.527104 0.812289
vt 0.527607 0.813350
vt 0.563478 0.832139
vt 0.532200 0.818880
vt 0.538344 0.823692
vt 0.051394 0.863425
vt 0.600077 0.826664
vt 0.591675 0.829807
vt 0.582537 0.831811
vt 0.573017 0.832598
vt 0.563478 0.832139
vt 0.538344 0.823692
vt 0.554289 0.830451
vt 0.545802 0.827598
vt 0.532200 0.818880
vt 0.527607 0.813350
vt 0.524742 0.807312
vt 0.523715 0.801000
vt 0.524564 0.794655
vt 0.527258 0.788522
vt 0.531693 0.782836
vt 0.545044 0.773653
vt 0.553447 0.770511
vt 0.562584 0.768507
vt 0.572105 0.767719
vt 0.581643 0.768178
vt 0.606778 0.776626
vt 0.590832 0.769867
vt 0.599319 0.772719
vt 0.612922 0.781437
vt 0.617514 0.786968
vt 0.620380 0.793005
vt 0.620557 0.805663
vt 0.617863 0.811796
vt 0.613428 0.817482
vt 0.042441 0.866552
vt 0.065899 0.865251
vn 0.9227 0.0000 -0.3856
vn 0.9728 0.0000 0.2316
vn 0.9952 0.0000 -0.0980
vn -0.2903 -0.0000 0.9569
vn 0.7730 0.0000 0.6344
vn 0.6344 0.0000 -0.7730
vn -0.0980 0.0000 -0.9952
vn 0.9952 -0.0000 0.0980
vn 0.6344 0.0000 0.7730
vn 0.9569 0.0000 -0.2903
vn 0.8819 0.0000 -0.4714
vn 0.4714 0.0000 0.8819
vn 0.4714 0.0000 -0.8819
vn 0.9352 0.0000 0.3540
vn 0.9622 -0.0000 -0.2723
vn -0.0000 -1.0000 -0.0000
vn 0.8819 0.0000 0.4714
vn 0.2903 0.0000 -0.9569
vn 0.2903 -0.0000 0.9569
vn 0.2905 0.0028 0.9569
vn -0.7730 -0.0000 0.6344
vn 0.0000 -0.0000 1.0000
vn -0.7730 0.0000 -0.6344
vn 0.7730 0.0000 -0.6344
vn 0.0000 0.0000 -1.0000
vn 0.0000 1.0000 0.0000
vn -0.9569 -0.0000 -0.2903
vn 0.9923 0.0000 -0.1237
vn -0.9952 -0.0000 -0.0980
vn -0.8819 0.0000 -0.4714
vn -0.2903 0.0000 -0.9569
vn 0.9995 0.0000 0.0301
vn 0.0980 0.0000 -0.9952
vn 0.9569 0.0000 0.2903
vn -0.6344 0.0000 0.7730
vn 0.0980 -0.0000 0.9952
vn -0.4714 0.0000 -0.8819
vn -0.0980 -0.0000 0.9952
vn -0.8819 -0.0000 0.4714
vn -0.9569 -0.0000 0.2903
vn -0.6344 0.0000 -0.7730
vn -0.4714 -0.0000 0.8819
vn -0.9952 -0.0000 0.0980
vn 0.2902 0.0000 -0.9570
vn 0.2892 -0.0026 -0.9573
vn 0.2903 0.0028 -0.9569
vn 0.2903 -0.0001 -0.9569
vn 0.2902 0.0000 0.9570
vn 0.2903 0.0028 0.9569
vn 0.2903 -0.0001 0.9569
vn 0.2918 0.0024 0.9565
usemtl Material
s off
f 5/1/1 1/2/1 74/3/1
f 8/4/2 4/5/2 7/6/2
f 70/7/3 79/8/3 78/9/3
f 46/10/4 91/11/4 47/12/4
f 40/13/5 37/14/5 38/15/5
f 27/16/6 23/17/6 25/18/6
f 60/19/7 97/20/7 19/21/7
f 76/22/8 32/23/8 33/24/8
f 42/25/9 39/26/9 40/27/9
f 79/8/10 71/28/10 81/29/10
f 84/30/5 66/31/5 82/32/5
f 71/28/11 83/33/11 81/29/11
f 31/34/10 29/35/10 11/36/10
f 87/37/12 63/38/12 85/39/12
f 25/18/13 24/40/13 22/41/13
f 67/42/6 86/43/6 68/44/6
f 14/45/14 8/4/14 7/6/14
f 78/9/8 73/46/8 70/7/8
f 84/30/9 63/38/9 62/47/9
f 1/2/15 9/48/15 15/49/15
f 6/50/16 38/51/16 35/52/16
f 38/15/17 36/53/17 35/54/17
f 32/55/16 45/56/16 53/57/16
f 20/58/18 21/59/18 18/60/18
f 88/61/19 44/62/20 16/63/19
f 49/64/21 98/65/21 50/66/21
f 5/67/22 16/68/22 17/69/22
f 56/70/23 108/71/23 57/72/23
f 68/44/24 83/33/24 64/73/24
f 20/58/25 14/74/25 21/59/25
f 8/75/26 64/76/26 71/77/26
f 54/78/27 103/79/27 55/80/27
f 12/81/24 26/82/24 27/83/24
f 11/36/11 28/84/11 12/81/11
f 3/85/28 15/49/28 9/48/28
f 95/86/13 67/42/13 69/87/13
f 53/88/29 102/89/29 54/78/29
f 55/80/30 104/90/30 56/70/30
f 59/91/31 105/92/31 60/19/31
f 3/85/32 2/93/32 10/94/32
f 19/21/33 96/95/33 18/60/33
f 76/22/34 36/53/34 34/96/34
f 48/97/35 93/98/35 49/99/35
f 44/62/36 89/100/36 45/101/36
f 80/102/17 66/31/17 65/103/17
f 58/104/37 106/105/37 59/91/37
f 45/101/38 90/106/38 46/10/38
f 50/66/39 99/107/39 51/108/39
f 75/109/12 41/110/12 42/25/12
f 65/103/34 77/111/34 80/102/34
f 51/108/40 100/112/40 52/113/40
f 33/24/3 30/114/3 31/34/3
f 89/115/26 84/116/26 108/117/26
f 57/118/41 107/119/41 58/104/41
f 47/12/42 92/120/42 48/97/42
f 52/113/43 101/121/43 53/88/43
f 5/1/1 6/122/1 1/2/1
f 8/4/2 2/93/2 4/5/2
f 70/7/3 61/123/3 79/8/3
f 46/10/4 90/106/4 91/11/4
f 40/13/5 39/124/5 37/14/5
f 27/16/6 26/125/6 23/17/6
f 60/19/7 105/92/7 97/20/7
f 76/22/8 34/96/8 32/23/8
f 42/25/9 41/110/9 39/26/9
f 79/8/10 61/123/10 71/28/10
f 84/30/5 62/47/5 66/31/5
f 71/28/11 64/73/11 83/33/11
f 31/34/10 30/114/10 29/35/10
f 87/37/12 72/126/12 63/38/12
f 25/18/13 23/17/13 24/40/13
f 67/42/6 94/127/6 86/43/6
f 14/45/14 13/128/14 8/4/14
f 78/9/8 77/111/8 73/46/8
f 84/30/9 85/39/9 63/38/9
f 1/2/15 6/122/15 9/48/15
f 22/129/16 21/130/16 14/131/16
f 22/129/16 14/131/16 25/132/16
f 14/131/16 7/133/16 12/134/16
f 25/132/16 14/131/16 27/135/16
f 27/135/16 14/131/16 12/134/16
f 7/133/16 4/136/16 11/137/16
f 12/134/16 7/133/16 11/137/16
f 4/136/16 3/138/16 33/139/16
f 11/137/16 4/136/16 31/140/16
f 3/138/16 9/141/16 76/142/16
f 31/140/16 4/136/16 33/139/16
f 6/50/16 5/143/16 38/51/16
f 5/143/16 17/144/16 75/145/16
f 9/141/16 6/50/16 35/52/16
f 33/139/16 3/138/16 76/142/16
f 5/143/16 75/145/16 42/146/16
f 5/143/16 42/146/16 40/147/16
f 76/142/16 9/141/16 35/52/16
f 5/143/16 40/147/16 38/51/16
f 38/15/17 37/14/17 36/53/17
f 32/55/16 34/148/16 39/149/16
f 34/148/16 36/150/16 39/149/16
f 36/150/16 37/151/16 39/149/16
f 39/149/16 41/152/16 43/153/16
f 43/153/16 44/154/16 45/56/16
f 45/56/16 46/155/16 47/156/16
f 47/156/16 48/157/16 45/56/16
f 48/157/16 49/158/16 45/56/16
f 49/158/16 50/159/16 51/160/16
f 51/160/16 52/161/16 53/57/16
f 53/57/16 54/162/16 55/163/16
f 55/163/16 56/164/16 53/57/16
f 56/164/16 57/165/16 53/57/16
f 57/165/16 58/166/16 59/167/16
f 59/167/16 60/168/16 57/165/16
f 60/168/16 19/169/16 57/165/16
f 19/169/16 18/170/16 26/171/16
f 18/170/16 24/172/16 26/171/16
f 24/172/16 23/173/16 26/171/16
f 26/171/16 28/174/16 29/175/16
f 29/175/16 30/176/16 32/55/16
f 39/149/16 43/153/16 32/55/16
f 43/153/16 45/56/16 32/55/16
f 49/158/16 51/160/16 45/56/16
f 51/160/16 53/57/16 45/56/16
f 26/171/16 29/175/16 19/169/16
f 29/175/16 32/55/16 19/169/16
f 53/57/16 57/165/16 32/55/16
f 57/165/16 19/169/16 32/55/16
f 22/41/44 24/40/45 21/59/44
f 24/40/18 18/60/46 21/59/46
f 96/95/47 95/86/47 20/58/47
f 95/86/44 69/87/44 20/58/44
f 96/95/18 20/58/18 18/60/18
f 16/63/48 72/126/48 87/37/48
f 44/62/19 43/177/49 17/69/49
f 43/177/48 75/178/48 17/69/48
f 16/63/50 87/37/50 88/61/50
f 44/62/51 17/69/19 16/63/19
f 49/64/21 93/179/21 98/65/21
f 5/67/22 74/180/22 16/68/22
f 56/70/23 104/90/23 108/71/23
f 68/44/24 86/43/24 83/33/24
f 20/58/25 13/181/25 14/74/25
f 72/182/26 16/183/26 74/184/26
f 72/182/26 74/184/26 63/185/26
f 74/184/26 1/186/26 66/187/26
f 63/185/26 74/184/26 62/188/26
f 62/188/26 74/184/26 66/187/26
f 1/186/26 15/189/26 65/190/26
f 66/187/26 1/186/26 65/190/26
f 15/189/26 10/191/26 73/192/26
f 65/190/26 15/189/26 73/192/26
f 10/191/26 2/193/26 70/194/26
f 73/192/26 10/191/26 70/194/26
f 8/75/26 13/195/26 64/76/26
f 13/195/26 20/196/26 69/197/26
f 2/193/26 8/75/26 71/77/26
f 70/194/26 2/193/26 61/198/26
f 13/195/26 69/197/26 67/199/26
f 13/195/26 67/199/26 68/200/26
f 61/198/26 2/193/26 71/77/26
f 13/195/26 68/200/26 64/76/26
f 54/78/27 102/89/27 103/79/27
f 12/81/24 28/84/24 26/82/24
f 11/36/11 29/35/11 28/84/11
f 3/85/28 10/94/28 15/49/28
f 95/86/13 94/127/13 67/42/13
f 53/88/29 101/121/29 102/89/29
f 55/80/30 103/79/30 104/90/30
f 59/91/31 106/105/31 105/92/31
f 3/85/32 4/5/32 2/93/32
f 19/21/33 97/20/33 96/95/33
f 76/22/34 35/54/34 36/53/34
f 48/97/35 92/120/35 93/98/35
f 44/62/36 88/61/36 89/100/36
f 80/102/17 82/32/17 66/31/17
f 58/104/37 107/119/37 106/105/37
f 45/101/38 89/100/38 90/106/38
f 50/66/39 98/65/39 99/107/39
f 75/109/12 43/201/12 41/110/12
f 65/103/34 73/46/34 77/111/34
f 51/108/40 99/107/40 100/112/40
f 33/24/3 32/23/3 30/114/3
f 84/116/26 82/202/26 80/203/26
f 80/203/26 77/204/26 84/116/26
f 77/204/26 78/205/26 84/116/26
f 78/205/26 79/206/26 86/207/26
f 79/206/26 81/208/26 86/207/26
f 81/208/26 83/209/26 86/207/26
f 86/207/26 94/210/26 95/211/26
f 95/211/26 96/212/26 97/213/26
f 97/213/26 105/214/26 108/117/26
f 105/214/26 106/215/26 108/117/26
f 106/215/26 107/216/26 108/117/26
f 108/117/26 104/217/26 103/218/26
f 103/218/26 102/219/26 101/220/26
f 101/220/26 100/221/26 93/222/26
f 100/221/26 99/223/26 93/222/26
f 99/223/26 98/224/26 93/222/26
f 93/222/26 92/225/26 89/115/26
f 92/225/26 91/226/26 89/115/26
f 91/226/26 90/227/26 89/115/26
f 89/115/26 88/228/26 84/116/26
f 88/228/26 87/229/26 84/116/26
f 87/229/26 85/230/26 84/116/26
f 86/207/26 95/211/26 108/117/26
f 95/211/26 97/213/26 108/117/26
f 108/117/26 103/218/26 93/222/26
f 103/218/26 101/220/26 93/222/26
f 84/116/26 78/205/26 108/117/26
f 78/205/26 86/207/26 108/117/26
f 93/222/26 89/115/26 108/117/26
f 57/118/41 108/231/41 107/119/41
f 47/12/42 91/11/42 92/120/42
f 52/113/43 100/232/43 101/121/43
