# Blender v2.82 (sub 7) OBJ File: ''
# www.blender.org
mtllib Range3.mtl
o Range3_Scale3
v 3.000000 0.193750 0.500000
v 3.000000 0.006250 0.500000
v 3.000000 0.006250 -0.500000
v 3.000000 0.193750 -0.500000
v -3.000000 0.193750 -0.500000
v -3.000000 0.006250 -0.500000
v -3.000000 0.006250 0.500000
v -3.000000 0.193750 0.500000
vt 0.192752 0.188948
vt 0.194420 0.183612
vt 0.194420 0.188948
vt 0.192752 0.183612
vt 0.194420 0.188948
vt 0.194420 0.183612
vt 0.491117 0.599183
vt 0.657877 0.000643
vt 0.657508 0.599463
vt 0.166741 0.183612
vt 0.220098 0.188948
vt 0.166741 0.188948
vt 0.166741 0.185880
vt 0.220098 0.186880
vt 0.166741 0.186880
vt 0.220098 0.185880
vt 0.166741 0.186880
vt 0.220098 0.186880
vt 0.192752 0.183612
vt 0.192752 0.188948
vt 0.492075 0.000674
vt 0.220098 0.183612
vt 0.220098 0.185880
vt 0.166741 0.185880
vn 1.0000 0.0000 0.0000
vn -1.0000 0.0000 0.0000
vn 0.0000 1.0000 0.0000
vn 0.0000 -1.0000 -0.0000
vn 0.0000 -0.0000 1.0000
vn 0.0000 0.0000 -1.0000
usemtl Material
s 1
f 2/1/1 4/2/1 1/3/1
f 6/4/2 8/5/2 5/6/2
f 8/7/3 4/8/3 5/9/3
f 6/10/4 2/11/4 7/12/4
f 7/13/5 1/14/5 8/15/5
f 3/16/6 5/17/6 4/18/6
f 2/1/1 3/19/1 4/2/1
f 6/4/2 7/20/2 8/5/2
f 8/7/3 1/21/3 4/8/3
f 6/10/4 3/22/4 2/11/4
f 7/13/5 2/23/5 1/14/5
f 3/16/6 6/24/6 5/17/6
