# Blender v2.82 (sub 7) OBJ File: ''
# www.blender.org
mtllib Range5.mtl
o Range5_Scale5
v 5.000000 0.193750 0.500000
v 5.000000 0.006250 0.500000
v 5.000000 0.006250 -0.500000
v 5.000000 0.193750 -0.500000
v -5.000000 0.193750 -0.500000
v -5.000000 0.006250 -0.500000
v -5.000000 0.006250 0.500000
v -5.000000 0.193750 0.500000
vt 0.192145 0.194288
vt 0.194539 0.186626
vt 0.194539 0.194288
vt 0.192145 0.186626
vt 0.194539 0.194288
vt 0.194539 0.186626
vt 0.834332 0.999982
vt 0.998517 -0.000051
vt 0.999530 0.999991
vt 0.129252 0.186626
vt 0.256953 0.194288
vt 0.129252 0.194288
vt 0.129252 0.189882
vt 0.256953 0.191319
vt 0.129252 0.191319
vt 0.256953 0.189882
vt 0.129252 0.191319
vt 0.256953 0.191319
vt 0.192145 0.186626
vt 0.192145 0.194288
vt 0.835372 -0.000146
vt 0.256953 0.186626
vt 0.256953 0.189882
vt 0.129252 0.189882
vn 1.0000 0.0000 0.0000
vn -1.0000 0.0000 0.0000
vn 0.0000 1.0000 0.0000
vn 0.0000 -1.0000 -0.0000
vn 0.0000 -0.0000 1.0000
vn 0.0000 0.0000 -1.0000
usemtl Material
s 1
f 2/1/1 4/2/1 1/3/1
f 6/4/2 8/5/2 5/6/2
f 8/7/3 4/8/3 5/9/3
f 6/10/4 2/11/4 7/12/4
f 7/13/5 1/14/5 8/15/5
f 3/16/6 5/17/6 4/18/6
f 2/1/1 3/19/1 4/2/1
f 6/4/2 7/20/2 8/5/2
f 8/7/3 1/21/3 4/8/3
f 6/10/4 3/22/4 2/11/4
f 7/13/5 2/23/5 1/14/5
f 3/16/6 6/24/6 5/17/6
