# Blender 3.5.1
# www.blender.org
mtllib NewSmallMeshB.mtl
o Cylinder.003
v -0.158593 0.165096 -0.232005
v -0.191423 -0.006589 -0.205062
v -0.158593 -0.006589 -0.232005
v -0.197819 0.165096 -0.197269
v -0.227488 -0.006589 -0.161116
v -0.197819 -0.006589 -0.197268
v -0.257709 0.154846 0.099699
v -0.254641 0.154846 0.109814
v -0.254318 -0.006838 0.110878
v -0.111240 -0.005793 -0.260496
v -0.111240 0.164301 -0.260496
v -0.116420 0.165096 -0.257727
v -0.197819 -0.006589 0.197269
v -0.227489 0.165096 0.161116
v -0.197819 0.165096 0.197269
v -0.147478 0.165096 0.241127
v -0.147478 -0.006589 0.241127
v -0.158593 -0.006589 0.232005
v -0.257709 0.154846 -0.099699
v -0.270790 0.154846 -0.056577
v -0.265596 -0.006838 -0.073699
v -0.228607 0.154846 0.159024
v -0.228607 0.155829 0.159024
v -0.276362 0.154846 -0.000000
v -0.276362 -0.006838 0.000000
v -0.273582 -0.006838 -0.028230
v -0.230128 -0.006838 -0.156177
v -0.229441 -0.006838 -0.157463
v -0.228606 -0.006589 -0.159024
v -0.116420 0.165096 0.257727
v -0.111240 -0.005793 0.260496
v -0.116420 -0.006589 0.257727
v -0.271334 -0.006838 0.051055
v -0.273582 -0.006838 0.028230
v -0.273832 0.154846 0.025688
v -0.147477 -0.006589 -0.241127
v -0.147477 0.165096 -0.241127
v -0.191423 0.165096 -0.205062
v -0.227488 0.165096 -0.161116
v -0.269667 -0.006838 0.060278
v -0.270790 -0.006838 0.056576
v -0.270790 0.154846 0.056576
v -0.261780 0.154846 0.086277
v -0.258737 0.154846 0.096311
v -0.254288 0.154846 0.110978
v -0.254288 -0.006838 0.110978
v -0.116420 -0.006589 -0.257727
v -0.111240 -0.006589 -0.260496
v -0.111240 0.165096 -0.260496
v -0.227489 -0.006589 0.161116
v -0.191423 0.165096 0.205061
v -0.191423 -0.006589 0.205061
v -0.158593 0.165096 0.232005
v -0.254287 -0.006838 -0.110979
v -0.254287 0.154846 -0.110979
v -0.254640 0.154846 -0.109815
v -0.256475 0.154846 -0.103767
v -0.254318 0.154846 -0.110878
v -0.255264 0.154846 -0.107759
v -0.270514 -0.006838 -0.057487
v -0.270790 -0.006838 -0.056577
v -0.229441 -0.006838 0.157463
v -0.251914 0.154846 0.115419
v -0.228607 -0.006814 0.159024
v -0.228607 -0.006838 0.159024
v -0.228607 -0.006589 0.159024
v -0.228607 0.165096 0.159024
v -0.272292 0.154846 -0.041324
v -0.228606 0.154846 -0.159024
v -0.228606 0.165096 -0.159024
v -0.228606 0.164113 -0.159024
v -0.251914 0.154846 -0.115419
v -0.235925 -0.006838 -0.145333
v -0.228606 -0.006838 -0.159024
v -0.228606 -0.006613 -0.159024
v -0.111240 0.165096 0.260496
v -0.111240 0.164301 0.260496
v -0.111240 -0.006589 0.260496
v -0.270821 -0.006838 0.056264
v -1.573916 0.165096 -0.197462
v -1.573858 0.079308 -0.260496
v -1.573916 0.079308 -0.197462
v -1.573916 0.165096 0.057099
v -1.573916 0.079308 -0.007008
v -1.573916 0.079308 0.057099
v -1.573916 -0.006589 -0.007008
v -1.573916 -0.006589 0.057099
v -1.573858 -0.006589 -0.260496
v -1.573916 -0.006589 -0.197462
v -1.573916 -0.006589 0.191263
v -1.573916 0.079308 0.121207
v -1.573916 -0.006589 0.121207
v -1.573916 0.165096 0.191263
v -1.573916 0.079308 0.191263
v -1.573916 0.079308 -0.070718
v -1.573916 -0.006589 -0.134428
v -1.573916 -0.006589 -0.070718
v -1.573916 0.165096 -0.070718
v -1.573916 0.079308 -0.134428
v -1.573916 0.165096 -0.007008
v -1.573916 0.165096 0.121207
v -0.257709 -0.006589 0.106746
v -0.231932 -0.006589 0.154972
v -1.573858 0.165096 0.260496
v -1.573858 0.079308 0.260496
v -1.573858 -0.006589 0.260496
v -1.573916 0.165096 -0.134428
v -0.257709 -0.006838 0.106746
v -0.231932 -0.006838 0.154972
v -0.273582 -0.006838 0.054419
v -0.273582 -0.006589 0.054419
v -0.278942 -0.006838 0.000000
v -0.278942 -0.006589 0.000000
v -0.273582 -0.006838 -0.054419
v -0.257709 -0.006589 -0.106746
v -0.257709 -0.006838 -0.106746
v -0.231932 -0.006838 -0.154972
v -0.231932 -0.006589 -0.154972
v -0.257709 0.165096 0.106746
v -0.273582 0.154846 0.054419
v -0.273582 0.165096 0.054419
v -0.231932 0.165096 -0.154972
v -0.257709 0.165096 -0.106746
v -0.273582 0.165096 -0.054419
v -0.257709 0.154846 -0.106746
v -0.278942 0.165096 -0.000000
v -0.278942 0.154846 -0.000000
v -0.231932 0.154846 -0.154972
v -0.231932 0.154846 0.154972
v -0.257709 0.154846 0.106746
v -0.273582 0.154846 -0.054419
v -1.573858 0.165096 -0.260496
v -0.273582 -0.006589 -0.054419
v -0.231932 0.165096 0.154972
vn 0.6344 -0.0000 0.7730
vn 0.7730 -0.0000 0.6344
vn 0.9569 -0.0000 -0.2903
vn 0.4714 -0.0000 0.8819
vn 0.7730 -0.0000 -0.6344
vn 0.6344 -0.0000 -0.7730
vn 0.9569 -0.0000 0.2903
vn 0.8820 -0.0000 -0.4713
vn 0.9952 -0.0000 0.0980
vn 0.8819 -0.0002 0.4714
vn 0.4714 -0.0000 -0.8819
vn 0.9952 -0.0000 -0.0980
vn 0.9570 -0.0000 -0.2902
vn 0.9569 -0.0000 -0.2904
vn 0.7729 -0.0000 -0.6345
vn 0.9570 -0.0000 0.2902
vn 0.9452 0.0223 0.3258
vn 0.9455 -0.0116 0.3253
vn 0.9448 -0.0457 0.3245
vn 0.9569 -0.0000 0.2904
vn 0.8819 -0.0000 -0.4714
vn 0.8820 -0.0000 -0.4712
vn 0.8820 -0.0000 0.4713
vn 0.8819 -0.0000 0.4714
vn 0.8818 -0.0000 0.4717
vn 0.8819 -0.0000 0.4715
vn -1.0000 -0.0000 -0.0009
vn -1.0000 -0.0000 -0.0000
vn -0.0000 -1.0000 -0.0000
vn -1.0000 -0.0000 0.0008
vn -0.0000 -0.0000 -1.0000
vn -0.8819 -0.0000 0.4714
vn -0.9569 -0.0000 0.2903
vn -0.9952 -0.0000 0.0980
vn -0.9952 -0.0000 -0.0980
vn -0.9569 -0.0000 -0.2903
vn -0.8819 -0.0000 -0.4714
vn -0.7729 -0.0000 -0.6345
vn -0.7730 -0.0000 -0.6345
vn 0.7730 -0.0000 0.6345
vn -0.0000 1.0000 -0.0000
vn 0.0004 -1.0000 -0.0003
vn -0.0000 -0.0000 1.0000
vn 0.7730 -0.0000 -0.6343
vn -0.0002 -1.0000 0.0002
vn 0.0003 1.0000 0.0001
vn -0.7730 -0.0000 0.6344
vn -0.7730 -0.0000 0.6343
vn 0.0052 -1.0000 0.0023
vt 0.063939 0.864577
vt 0.531675 0.782415
vt 0.063760 0.864015
vt 0.536339 0.778516
vt 0.061671 0.863585
vt 0.063760 0.863585
vt 0.063939 0.864015
vt 0.063939 0.863497
vt 0.062608 0.863611
vt 0.537693 0.777748
vt 0.061671 0.863729
vt 0.063563 0.863729
vt 0.061671 0.863611
vt 0.063725 0.863611
vt 0.062552 0.864583
vt 0.063398 0.864583
vt 0.062552 0.864616
vt 0.063415 0.864616
vt 0.061670 0.864620
vt 0.063417 0.864620
vt 0.064198 0.864018
vt 0.064198 0.864575
vt 0.526763 0.788007
vt 0.064169 0.864577
vt 0.527239 0.787397
vt 0.061671 0.864903
vt 0.063725 0.864903
vt 0.062608 0.864784
vt 0.600402 0.773217
vt 0.062608 0.864903
vt 0.606782 0.776559
vt 0.064000 0.864577
vt 0.614544 0.782281
vt 0.064000 0.864015
vt 0.064000 0.865047
vt 0.063939 0.864015
vt 0.063939 0.865017
vt 0.062552 0.863930
vt 0.063398 0.863930
vt 0.062552 0.864072
vt 0.063327 0.864072
vt 0.061670 0.864016
vt 0.063355 0.864016
vt 0.062552 0.864778
vt 0.063557 0.864778
vt 0.062558 0.864778
vt 0.062552 0.864257
vt 0.063296 0.864257
vt 0.061670 0.864257
vt 0.063296 0.864257
vt 0.061670 0.864164
vt 0.063312 0.864164
vt 0.061670 0.863746
vt 0.063549 0.863746
vt 0.061670 0.863741
vt 0.063552 0.863741
vt 0.061671 0.863736
vt 0.063557 0.863736
vt 0.064169 0.864577
vt 0.617502 0.785842
vt 0.617995 0.786437
vt 0.064198 0.864018
vt 0.064169 0.864015
vt 0.617502 0.785842
vt 0.064169 0.865101
vt 0.061670 0.864424
vt 0.063324 0.864424
vt 0.061670 0.864349
vt 0.063312 0.864349
vt 0.062552 0.864341
vt 0.063310 0.864341
vt 0.530095 0.783735
vt 0.064000 0.864015
vt 0.064000 0.863467
vt 0.064000 0.864577
vt 0.530095 0.783735
vt 0.062608 0.863585
vt 0.536339 0.778516
vt 0.062608 0.863729
vt 0.543976 0.774189
vt 0.061670 0.864454
vt 0.063333 0.864454
vt 0.061670 0.864442
vt 0.063327 0.864442
vt 0.062552 0.864442
vt 0.063327 0.864442
vt 0.062552 0.864539
vt 0.063376 0.864539
vt 0.062552 0.864572
vt 0.063393 0.864572
vt 0.062552 0.864620
vt 0.063417 0.864620
vt 0.061670 0.864620
vt 0.063417 0.864620
vt 0.064169 0.864015
vt 0.064169 0.863413
vt 0.064198 0.863404
vt 0.064198 0.864015
vt 0.526763 0.788007
vt 0.061671 0.864784
vt 0.063563 0.864784
vt 0.062608 0.864928
vt 0.063760 0.864577
vt 0.608157 0.777279
vt 0.061671 0.864928
vt 0.063760 0.864015
vt 0.063760 0.864928
vt 0.063939 0.864577
vt 0.612929 0.781016
vt 0.061670 0.863894
vt 0.063417 0.863894
vt 0.062552 0.863894
vt 0.063417 0.863894
vt 0.062552 0.863897
vt 0.063415 0.863897
vt 0.062552 0.863917
vt 0.063405 0.863917
vt 0.063417 0.863894
vt 0.062552 0.863904
vt 0.063412 0.863904
vt 0.061670 0.864069
vt 0.063328 0.864069
vt 0.061670 0.864072
vt 0.063327 0.864072
vt 0.061670 0.864773
vt 0.063552 0.864773
vt 0.062552 0.864635
vt 0.063430 0.864635
vt 0.061670 0.864778
vt 0.063557 0.864778
vt 0.061670 0.864778
vt 0.063557 0.864778
vt 0.061671 0.864778
vt 0.062608 0.864778
vt 0.600034 0.773094
vt 0.062552 0.864121
vt 0.063319 0.864121
vt 0.062552 0.863736
vt 0.063557 0.863736
vt 0.062608 0.863736
vt 0.544340 0.774052
vt 0.544340 0.774052
vt 0.062603 0.863736
vt 0.062552 0.863879
vt 0.063430 0.863879
vt 0.061670 0.863781
vt 0.063517 0.863781
vt 0.063557 0.863736
vt 0.061670 0.863736
vt 0.061671 0.863736
vt 0.617995 0.786437
vt 0.064198 0.864575
vt 0.617995 0.786437
vt 0.617995 0.786437
vt 0.064198 0.864015
vt 0.061670 0.864441
vt 0.063327 0.864441
vt 0.062608 0.863610
vt 0.542194 0.640759
vt 0.062140 0.863404
vt 0.056216 0.864296
vt 0.062140 0.863610
vt 0.062608 0.864444
vt 0.581898 0.643397
vt 0.062140 0.864234
vt 0.062140 0.864444
vt 0.061671 0.864234
vt 0.056543 0.864234
vt 0.061671 0.864444
vt 0.056533 0.864444
vt 0.061671 0.863404
vt 0.056216 0.863404
vt 0.056216 0.864015
vt 0.056359 0.863610
vt 0.061671 0.863610
vt 0.056359 0.864883
vt 0.061671 0.864883
vt 0.062140 0.864654
vt 0.061671 0.864654
vt 0.056466 0.864654
vt 0.062608 0.864883
vt 0.602753 0.639691
vt 0.062140 0.864883
vt 0.062140 0.864025
vt 0.061671 0.863817
vt 0.056457 0.863817
vt 0.061671 0.864025
vt 0.056512 0.864025
vt 0.062608 0.864025
vt 0.561980 0.643336
vt 0.062140 0.863817
vt 0.062608 0.864234
vt 0.571914 0.643772
vt 0.062608 0.864654
vt 0.591868 0.641936
vt 0.063398 0.864606
vt 0.061671 0.864606
vt 0.063539 0.864764
vt 0.061671 0.864764
vt 0.062608 0.865110
vt 0.056216 0.864577
vt 0.613501 0.636761
vt 0.062140 0.865110
vt 0.056216 0.864296
vt 0.061671 0.865110
vt 0.613501 0.636761
vt 0.056216 0.864015
vt 0.056216 0.865110
vt 0.062608 0.863817
vt 0.552040 0.642455
vt 0.061670 0.864606
vt 0.063398 0.864606
vt 0.061670 0.864764
vt 0.063539 0.864764
vt 0.061670 0.864435
vt 0.063312 0.864435
vt 0.063312 0.864435
vt 0.061671 0.864435
vt 0.061670 0.864257
vt 0.063282 0.864257
vt 0.063282 0.864257
vt 0.061671 0.864257
vt 0.061670 0.864079
vt 0.063312 0.864079
vt 0.063398 0.863907
vt 0.061671 0.863907
vt 0.061670 0.863907
vt 0.063398 0.863907
vt 0.061670 0.863749
vt 0.063539 0.863749
vt 0.061671 0.863749
vt 0.063539 0.863749
vt 0.590832 0.769867
vt 0.062608 0.864606
vt 0.062552 0.864435
vt 0.063312 0.864435
vt 0.581643 0.768178
vt 0.062608 0.864435
vt 0.062608 0.863749
vt 0.545044 0.773653
vt 0.553447 0.770510
vt 0.062608 0.863907
vt 0.562584 0.768507
vt 0.062608 0.864079
vt 0.062552 0.863907
vt 0.063398 0.863907
vt 0.572105 0.767719
vt 0.062608 0.864257
vt 0.062552 0.864257
vt 0.063282 0.864257
vt 0.062552 0.863749
vt 0.063539 0.863749
vt 0.063539 0.864764
vt 0.062552 0.864764
vt 0.062552 0.864606
vt 0.063398 0.864606
vt 0.062552 0.864079
vt 0.063312 0.864079
vt 0.062608 0.863404
vt 0.056216 0.864577
vt 0.532336 0.638174
vt 0.063312 0.864079
vt 0.061671 0.864079
vt 0.599319 0.772719
vt 0.062608 0.864764
s 0
usemtl Material.003
f 1/1/1 2/3/1 3/7/1
f 4/9/2 5/11/2 6/13/2
f 7/15/3 8/17/3 9/19/3
f 10/21/4 11/22/4 12/24/4
f 13/26/5 14/28/5 15/30/5
f 16/32/6 17/34/6 18/36/6
f 19/38/7 20/40/7 21/42/7
f 22/44/8 23/46/8 14/28/8
f 24/47/9 25/49/9 26/51/9
f 27/53/10 28/55/10 29/57/10
f 30/60/11 31/61/11 32/64/11
f 33/66/12 34/68/12 35/70/12
f 3/7/1 36/73/1 1/1/1
f 36/73/1 37/75/1 1/1/1
f 1/2/1 38/78/1 2/4/1
f 6/13/2 2/5/2 38/77/2
f 4/9/2 39/79/2 5/11/2
f 6/13/2 38/77/2 4/9/2
f 40/81/3 41/83/3 42/85/3
f 43/87/13 44/89/13 9/19/13
f 44/89/14 7/15/14 9/19/14
f 40/81/3 42/85/3 43/87/3
f 45/91/14 46/93/14 9/19/14
f 9/19/3 40/81/3 43/87/3
f 8/17/13 45/91/13 9/19/13
f 12/25/4 37/76/4 36/72/4
f 47/95/4 48/98/4 10/21/4
f 12/24/4 36/73/4 47/95/4
f 11/23/4 49/99/4 12/25/4
f 47/95/4 10/21/4 12/24/4
f 13/26/5 50/100/5 14/28/5
f 15/30/15 51/102/15 13/26/15
f 51/102/15 52/105/15 13/26/15
f 18/36/6 52/106/6 51/103/6
f 51/103/6 53/108/6 18/36/6
f 53/108/6 16/32/6 18/36/6
f 21/42/7 54/110/7 19/38/7
f 54/110/16 55/112/16 56/114/16
f 19/38/7 54/110/7 57/116/7
f 55/113/17 58/118/18 56/115/19
f 59/119/7 57/116/7 54/110/7
f 59/119/20 54/110/20 56/114/20
f 60/121/7 21/42/7 20/40/7
f 20/40/16 61/123/16 60/121/16
f 62/125/21 46/93/21 63/127/21
f 46/93/21 45/91/21 63/127/21
f 64/129/22 65/131/22 62/125/22
f 14/28/8 50/100/8 22/44/8
f 50/100/8 66/133/8 22/44/8
f 66/133/22 64/129/22 62/125/22
f 62/125/21 63/127/21 22/44/21
f 23/46/8 67/134/8 14/28/8
f 66/133/22 62/125/22 22/44/22
f 26/51/9 61/123/9 68/136/9
f 61/123/9 20/40/9 68/136/9
f 68/136/9 24/47/9 26/51/9
f 29/57/23 5/11/23 69/138/23
f 5/11/23 39/79/23 69/138/23
f 39/80/23 70/141/23 71/142/23
f 69/138/24 72/144/24 73/146/24
f 72/144/24 55/112/24 54/110/24
f 39/79/23 71/143/23 69/138/23
f 74/149/25 75/150/25 28/55/25
f 75/150/25 29/57/25 28/55/25
f 72/144/24 54/110/24 73/146/24
f 29/57/26 69/138/26 27/53/26
f 69/138/24 73/146/24 27/53/24
f 32/63/11 17/34/11 16/32/11
f 30/60/11 76/151/11 77/153/11
f 32/63/11 16/32/11 30/59/11
f 31/62/11 78/155/11 32/63/11
f 30/59/11 77/152/11 31/62/11
f 34/68/12 25/49/12 35/70/12
f 25/49/12 24/47/12 35/70/12
f 35/70/12 42/85/12 33/66/12
f 42/85/12 41/83/12 79/156/12
f 79/156/12 33/66/12 42/85/12
s 1
f 80/158/27 81/160/27 82/162/27
f 83/163/28 84/165/28 85/166/28
f 85/166/28 86/167/28 87/169/28
f 82/162/27 88/171/27 89/175/27
f 90/177/28 91/178/28 92/179/28
f 93/181/28 91/178/28 94/183/28
f 95/184/28 96/185/28 97/187/28
f 98/189/28 99/191/28 95/184/28
f 100/192/28 95/184/28 84/165/28
f 84/165/28 97/187/28 86/167/28
f 92/179/28 85/166/28 87/169/28
f 101/194/28 85/166/28 91/178/28
f 90/176/29 102/196/29 103/198/29
f 104/200/30 94/183/30 105/203/30
f 105/203/30 90/177/30 106/205/30
f 99/191/28 89/175/28 96/185/28
f 107/209/28 82/162/28 99/191/28
f 81/161/31 11/22/31 10/21/31
f 103/199/32 108/211/32 109/213/32
f 102/197/33 110/215/33 108/211/33
f 111/218/34 112/219/34 110/215/34
f 113/222/35 114/223/35 112/219/35
f 114/223/36 115/226/36 116/227/36
f 115/226/37 117/229/37 116/227/37
f 75/150/38 117/229/39 118/231/39
f 119/234/3 120/235/3 121/238/3
f 122/239/40 71/143/40 70/140/40
f 80/159/41 123/241/41 122/240/41
f 124/244/7 125/245/7 123/242/7
f 126/248/12 120/235/12 127/249/12
f 123/242/24 128/251/24 122/239/24
f 119/234/21 129/254/21 130/255/21
f 126/248/9 131/257/9 124/244/9
f 80/158/27 132/259/27 81/160/27
f 83/163/28 100/192/28 84/165/28
f 85/166/28 84/165/28 86/167/28
f 82/162/27 81/160/27 88/171/27
f 90/177/28 94/183/28 91/178/28
f 93/181/28 101/194/28 91/178/28
f 95/184/28 99/191/28 96/185/28
f 98/189/28 107/209/28 99/191/28
f 100/192/28 98/189/28 95/184/28
f 84/165/28 95/184/28 97/187/28
f 92/179/28 91/178/28 85/166/28
f 101/194/28 83/163/28 85/166/28
f 89/174/29 88/172/29 118/232/29
f 88/172/29 48/97/29 47/96/29
f 47/96/29 3/8/29 88/172/29
f 96/186/29 89/174/29 115/225/29
f 3/8/29 6/14/29 88/172/29
f 88/172/29 5/12/29 118/232/29
f 97/188/29 96/186/29 133/262/29
f 89/174/29 118/232/29 115/225/29
f 86/168/29 97/188/29 133/262/29
f 96/186/29 115/225/29 133/262/29
f 87/170/29 86/168/29 113/221/29
f 92/180/29 87/170/29 111/217/29
f 86/168/29 133/262/29 113/221/29
f 106/208/29 90/176/29 103/198/29
f 90/176/29 92/180/29 102/196/29
f 87/170/29 113/221/29 111/217/29
f 92/180/29 111/217/29 102/196/29
f 104/200/30 93/181/30 94/183/30
f 105/203/30 94/183/30 90/177/30
f 99/191/28 82/162/28 89/175/28
f 107/209/28 80/158/28 82/162/28
f 132/260/31 11/22/31 81/161/31
f 103/199/32 102/197/32 108/211/32
f 102/197/33 111/218/33 110/215/33
f 111/218/34 113/222/34 112/219/34
f 113/222/35 133/263/35 114/223/35
f 114/223/36 133/263/36 115/226/36
f 115/226/37 118/231/37 117/229/37
f 118/231/39 29/57/38 75/150/38
f 108/212/29 9/20/42 46/94/29
f 108/212/29 40/82/29 9/20/42
f 112/220/29 26/52/29 25/50/29
f 116/228/29 73/147/29 54/111/29
f 117/230/29 74/148/29 28/56/29
f 110/216/29 34/69/29 33/67/29
f 114/224/29 21/43/29 60/122/29
f 117/230/29 28/56/29 27/54/29
f 106/207/43 31/62/43 105/204/43
f 119/234/3 130/255/3 120/235/3
f 128/251/40 71/143/40 122/239/40
f 104/202/41 76/151/41 30/60/41
f 30/60/41 53/109/41 104/202/41
f 93/182/41 104/202/41 134/264/41
f 53/109/41 15/31/41 104/202/41
f 104/202/41 14/29/41 134/264/41
f 101/195/41 93/182/41 119/233/41
f 93/182/41 134/264/41 119/233/41
f 83/164/41 101/195/41 121/237/41
f 101/195/41 119/233/41 121/237/41
f 100/193/41 83/164/41 126/247/41
f 83/164/41 121/237/41 126/247/41
f 98/190/41 100/193/41 124/243/41
f 100/193/41 126/247/41 124/243/41
f 107/210/41 98/190/41 124/243/41
f 132/261/41 80/159/41 122/240/41
f 80/159/41 107/210/41 123/241/41
f 107/210/41 124/243/41 123/241/41
f 124/244/7 131/257/7 125/245/7
f 126/248/12 121/238/12 120/235/12
f 123/242/24 125/245/24 128/251/24
f 119/234/21 134/265/21 129/254/21
f 126/248/9 127/249/9 131/257/9
f 131/258/41 20/41/41 19/39/41
f 127/250/41 24/48/41 68/137/41
f 120/236/41 43/88/41 42/86/41
f 129/253/41 63/128/41 130/256/41
f 130/256/41 45/92/41 8/18/41
f 125/246/41 19/39/41 57/117/41
f 4/10/41 1/2/41 132/261/41
f 10/21/31 88/173/31 81/161/31
f 32/64/29 78/154/29 106/206/29
f 39/80/41 132/261/41 122/240/41
f 23/46/44 22/44/5 129/254/44
f 13/27/29 18/37/29 106/208/29
f 33/67/29 79/157/45 110/216/29
f 62/126/29 65/130/29 109/214/29
f 56/115/41 58/118/46 125/246/41
f 77/152/43 104/201/43 105/204/43
f 18/37/29 32/65/29 106/208/29
f 61/124/29 114/224/29 60/122/29
f 58/118/46 72/145/41 125/246/41
f 31/62/43 77/152/43 105/204/43
f 50/101/29 106/208/29 103/198/29
f 41/84/29 110/216/29 79/157/45
f 7/16/41 44/90/41 130/256/41
f 8/18/41 7/16/41 130/256/41
f 27/54/29 73/147/29 117/230/29
f 65/131/47 64/129/47 109/213/48
f 59/120/41 56/115/41 125/246/41
f 1/2/41 12/25/41 132/261/41
f 23/46/44 134/265/44 67/134/5
f 72/145/41 128/252/41 125/246/41
f 57/117/41 59/120/41 125/246/41
f 12/25/41 49/99/41 132/261/41
f 44/90/41 43/88/41 130/256/41
f 64/129/47 103/199/48 109/213/48
f 75/150/38 74/149/39 117/229/39
f 47/96/29 36/74/41 3/8/29
f 3/8/29 2/6/41 6/14/29
f 88/172/29 6/14/29 5/12/29
f 5/12/29 29/58/29 118/232/29
f 132/261/31 49/99/31 11/23/31
f 62/126/29 109/214/29 46/94/29
f 109/214/29 108/212/29 46/94/29
f 108/212/29 110/216/29 40/82/29
f 34/69/29 110/216/29 112/220/29
f 112/220/29 114/224/29 26/52/29
f 25/50/29 34/69/29 112/220/29
f 21/43/29 114/224/29 116/228/29
f 116/228/29 117/230/29 73/147/29
f 54/111/29 21/43/29 116/228/29
f 106/207/43 78/155/43 31/62/43
f 128/251/40 69/138/40 71/143/40
f 30/60/41 16/33/29 53/109/41
f 53/109/41 51/104/29 15/31/41
f 104/202/41 15/31/41 14/29/41
f 14/29/41 67/135/41 134/264/41
f 19/39/41 125/246/41 131/258/41
f 131/258/41 68/137/41 20/41/41
f 68/137/41 131/258/41 127/250/41
f 127/250/41 35/71/41 24/48/41
f 35/71/41 127/250/41 120/236/41
f 120/236/41 130/256/41 43/88/41
f 42/86/41 35/71/41 120/236/41
f 129/253/41 22/45/41 63/128/41
f 130/256/41 63/128/41 45/92/41
f 4/10/41 38/78/29 1/2/41
f 10/21/31 48/98/31 88/173/31
f 122/240/41 70/141/41 39/80/41
f 39/80/41 4/10/41 132/261/41
f 13/27/29 52/107/41 18/37/29
f 77/153/43 76/151/43 104/202/43
f 18/37/29 17/35/41 32/65/29
f 61/124/29 26/52/29 114/224/29
f 58/118/46 55/113/49 72/145/41
f 103/198/29 66/132/29 50/101/29
f 50/101/29 13/27/29 106/208/29
f 41/84/29 40/82/29 110/216/29
f 1/2/41 37/76/29 12/25/41
f 23/46/44 129/254/44 134/265/44
f 72/145/41 69/139/41 128/252/41
f 64/129/47 66/133/48 103/199/48
