# Blender v2.82 (sub 7) OBJ File: ''
# www.blender.org
mtllib CosmicBarricade.mtl
o Cube
v 0.316397 0.186707 -1.593721
v 0.375000 0.007502 -1.677800
v 0.316397 0.186707 1.593721
v 0.375000 0.007502 1.677800
v -0.316397 0.186707 -1.593721
v -0.375000 0.007502 -1.677800
v -0.316397 0.186707 1.593721
v -0.375000 0.007502 1.677800
v 0.292059 0.393261 -1.550089
v 0.292059 0.393261 1.550089
v -0.292059 0.393261 -1.550089
v -0.292059 0.393261 1.550089
v 0.110099 0.744124 -1.331739
v 0.110099 0.744124 1.331739
v -0.110099 0.744124 -1.331739
v -0.110099 0.744124 1.331739
v 0.110099 0.897878 -1.331739
v 0.110099 0.897878 1.331739
v -0.110099 0.897878 -1.331739
v -0.110099 0.897878 1.331739
vt 0.419155 0.558442
vt 0.369849 0.634351
vt 0.360081 0.580632
vt 0.419784 0.559532
vt 0.347685 0.547650
vt 0.419756 0.513788
vt 0.882483 0.662703
vt 0.417380 0.517230
vt 0.894471 0.627595
vt 0.656250 0.169922
vt 0.406250 0.419922
vt 0.406250 0.169922
vt 0.884380 0.661700
vt 0.896160 0.627660
vt 0.348536 0.547010
vt 0.426496 0.612967
vt 0.424872 0.692207
vt 0.367919 0.633632
vt 0.361909 0.580457
vt 0.427113 0.614845
vt 0.826750 0.753673
vt 0.464505 0.740137
vt 0.454545 0.682791
vt 0.872556 0.714752
vt 0.874021 0.710577
vt 0.454923 0.678923
vt 0.425200 0.691925
vt 0.466150 0.738807
vt 0.794570 0.810040
vt 0.449057 0.745450
vt 0.828209 0.750393
vt 0.448203 0.742337
vt 0.656250 0.419922
vt 0.808085 0.800498
vt 0.808378 0.800928
vn 0.0000 0.2067 -0.9784
vn 0.0000 0.4248 0.9053
vn -0.9505 0.3108 0.0000
vn 0.0000 -1.0000 0.0000
vn 0.9505 0.3108 0.0000
vn 0.0000 0.4248 -0.9053
vn 0.0000 0.5284 -0.8490
vn 0.0000 0.2067 0.9784
vn -0.9931 0.1170 0.0000
vn 0.9931 0.1170 0.0000
vn 1.0000 0.0000 0.0000
vn 0.8877 0.4604 0.0000
vn -0.8877 0.4604 0.0000
vn 0.0000 0.5284 0.8490
vn 0.0000 1.0000 0.0000
vn -1.0000 0.0000 0.0000
vn 0.0000 0.0000 1.0000
vn 0.0000 0.0000 -1.0000
usemtl Material
s off
f 5/1/1 9/2/1 1/3/1
f 3/4/2 8/5/2 4/6/2
f 7/7/3 6/8/3 8/9/3
f 2/10/4 8/11/4 6/12/4
f 1/13/5 4/6/5 2/14/5
f 5/1/6 2/15/6 6/8/6
f 11/16/7 13/17/7 9/2/7
f 3/4/8 12/18/8 7/19/8
f 7/7/9 11/16/9 5/1/9
f 1/13/10 10/20/10 3/4/10
f 13/21/11 18/22/11 14/23/11
f 9/24/12 14/23/12 10/20/12
f 12/25/13 15/26/13 11/16/13
f 10/20/14 16/27/14 12/18/14
f 19/28/15 18/29/15 17/30/15
f 16/31/16 19/28/16 15/26/16
f 14/23/17 20/32/17 16/27/17
f 15/26/18 17/30/18 13/17/18
f 5/1/1 11/16/1 9/2/1
f 3/4/2 7/19/2 8/5/2
f 7/7/3 5/1/3 6/8/3
f 2/10/4 4/33/4 8/11/4
f 1/13/5 3/4/5 4/6/5
f 5/1/6 1/3/6 2/15/6
f 11/16/7 15/26/7 13/17/7
f 3/4/8 10/20/8 12/18/8
f 7/7/9 12/25/9 11/16/9
f 1/13/10 9/24/10 10/20/10
f 13/21/11 17/34/11 18/22/11
f 9/24/12 13/21/12 14/23/12
f 12/25/13 16/31/13 15/26/13
f 10/20/14 14/23/14 16/27/14
f 19/28/15 20/35/15 18/29/15
f 16/31/16 20/35/16 19/28/16
f 14/23/17 18/22/17 20/32/17
f 15/26/18 19/28/18 17/30/18
