# Exported from Wings 3D 1.5.3
mtllib Mech Hangar.mtl
o Mech Hangar
#168 vertices, 150 faces
v -2.10400000 0.0000000e+0 -3.99395570
v -2.10400000 0.0000000e+0 3.99395570
v -2.10400000 4.20558428 -3.99395570
v -2.10400000 4.20558428 3.99395570
v 2.10400000 0.0000000e+0 -3.99395570
v 2.10400000 0.0000000e+0 3.99395570
v 2.10400000 4.20558428 -3.99395570
v 2.10400000 4.20558428 3.99395570
v -4.21156321 0.0000000e+0 -3.99395570
v -4.21156321 0.0000000e+0 3.99395570
v -4.21156321 4.20558428 3.99395570
v -4.21156321 4.20558428 -3.99395570
v 4.21156321 0.0000000e+0 3.99395570
v 4.21156321 0.0000000e+0 -3.99395570
v 4.21156321 4.20558428 -3.99395570
v 4.21156321 4.20558428 3.99395570
v 4.21156321 0.0000000e+0 4.83081429
v 4.21156321 4.20558428 4.22273977
v 2.10400000 4.20558428 4.22273977
v 2.10400000 0.0000000e+0 4.83081429
v 4.21156321 4.20558428 -4.22273977
v 4.21156321 0.0000000e+0 -4.83081429
v 2.10400000 0.0000000e+0 -4.83081429
v 2.10400000 4.20558428 -4.22273977
v -4.21156321 0.0000000e+0 -4.83081429
v -4.21156321 4.20558428 -4.22273977
v -2.10400000 4.20558428 -4.22273977
v -2.10400000 0.0000000e+0 -4.83081429
v -4.21156321 4.20558428 4.22273977
v -4.21156321 0.0000000e+0 4.83081429
v -2.10400000 0.0000000e+0 4.83081429
v -2.10400000 4.20558428 4.22273977
v -2.10400000 4.42003270 -3.99395570
v -2.10400000 4.42003270 3.99395570
v 2.10400000 4.42003270 3.99395570
v 2.10400000 4.42003270 -3.99395570
v -4.88980947 3.99373609 -4.12578670
v -4.88980947 3.99373609 -3.70169234
v -5.31390383 3.99373609 -3.70169234
v -5.31390383 3.99373609 -4.12578670
v -5.10185665 4.42090407 -3.91373952
v -4.88980947 3.80039877 -4.12578670
v -4.88980947 3.80039877 -3.70169234
v -5.31390383 3.80039877 -3.70169234
v -5.31390383 3.80039877 -4.12578670
v 5.31390383 3.99373609 -4.10954989
v 5.31390383 3.99373609 -3.68545553
v 4.88980947 3.99373609 -3.68545553
v 4.88980947 3.99373609 -4.10954989
v 5.10185665 4.42090407 -3.89750271
v 5.31390383 3.80039877 -4.10954989
v 5.31390383 3.80039877 -3.68545553
v 4.88980947 3.80039877 -3.68545553
v 4.88980947 3.80039877 -4.10954989
v -4.88980947 3.99373609 3.69311440
v -4.88980947 3.99373609 4.11720876
v -5.31390383 3.99373609 4.11720876
v -5.31390383 3.99373609 3.69311440
v -5.10185665 4.42090407 3.90516158
v -4.88980947 3.80039877 3.69311440
v -4.88980947 3.80039877 4.11720876
v -5.31390383 3.80039877 4.11720876
v -5.31390383 3.80039877 3.69311440
v 5.31390383 3.99373609 3.70144750
v 5.31390383 3.99373609 4.12554187
v 4.88980947 3.99373609 4.12554187
v 4.88980947 3.99373609 3.70144750
v 5.10185665 4.42090407 3.91349469
v 5.31390383 3.80039877 3.70144750
v 5.31390383 3.80039877 4.12554187
v 4.88980947 3.80039877 4.12554187
v 4.88980947 3.80039877 3.70144750
v -4.95341715 1.6653345e-16 -3.52940930
v -4.69479717 1.3877788e-16 -3.85012679
v -4.84323667 5.5511151e-17 -4.23445700
v -5.25029615 0.0000000e+0 -4.29806974
v -5.50891613 2.7755576e-17 -3.97735225
v -5.36047663 1.1102230e-16 -3.59302204
v -4.95341715 3.80039877 -3.52940930
v -4.69479717 3.80039877 -3.85012679
v -4.84323667 3.80039877 -4.23445700
v -5.25029615 3.80039877 -4.29806974
v -5.50891613 3.80039877 -3.97735225
v -5.36047663 3.80039877 -3.59302204
v 4.69479717 2.7755576e-17 -3.83388998
v 4.95341715 0.0000000e+0 -3.51317249
v 5.36047663 2.7755576e-17 -3.57678523
v 5.50891613 8.3266727e-17 -3.96111545
v 5.25029615 1.1102230e-16 -4.28183293
v 4.84323667 8.3266727e-17 -4.21822019
v 4.69479717 3.80039877 -3.83388998
v 4.95341715 3.80039877 -3.51317249
v 5.36047663 3.80039877 -3.57678523
v 5.50891613 3.80039877 -3.96111545
v 5.25029615 3.80039877 -4.28183293
v 4.84323667 3.80039877 -4.21822019
v -4.69479717 0.0000000e+0 3.84154885
v -4.95341715 5.5511151e-17 3.52083137
v -5.36047663 1.1102230e-16 3.58444410
v -5.50891613 1.3877788e-16 3.96877432
v -5.25029615 8.3266727e-17 4.28949180
v -4.84323667 2.7755576e-17 4.22587907
v -4.69479717 3.80039877 3.84154885
v -4.95341715 3.80039877 3.52083137
v -5.36047663 3.80039877 3.58444410
v -5.50891613 3.80039877 3.96877432
v -5.25029615 3.80039877 4.28949180
v -4.84323667 3.80039877 4.22587907
v 4.95341715 1.3877788e-16 3.52916447
v 4.69479717 3.8857806e-16 3.84988195
v 4.84323667 4.7184479e-16 4.23421217
v 5.25029615 3.0531133e-16 4.29782490
v 5.50891613 8.3266727e-17 3.97710742
v 5.36047663 0.0000000e+0 3.59277720
v 4.95341715 3.80039877 3.52916447
v 4.69479717 3.80039877 3.84988195
v 4.84323667 3.80039877 4.23421217
v 5.25029615 3.80039877 4.29782490
v 5.50891613 3.80039877 3.97710742
v 5.36047663 3.80039877 3.59277720
v -4.21156321 3.36433242 -2.78979142
v -4.21156321 0.0000000e+0 -2.78979142
v -4.21156321 3.36433242 -3.78335886
v -4.21156321 5.5511151e-17 -3.78335886
v -5.02251209 3.36433242 -3.44372392
v -5.02251209 5.5511151e-17 -3.44372392
v -4.62570224 3.36433242 -3.93581217
v -4.62570224 5.5511151e-17 -3.93581217
v -4.36820972 5.5511151e-17 -3.72817550
v -4.36820972 3.36433242 -3.72817550
v -4.76501957 5.5511151e-17 -3.23608725
v -4.76501957 3.36433242 -3.23608725
v 4.21156321 0.0000000e+0 -2.77355461
v 4.21156321 3.36433242 -2.77355461
v 4.21156321 1.1102230e-16 -3.76712205
v 4.21156321 3.36433242 -3.76712205
v 5.02251209 5.5511151e-17 -3.42748711
v 5.02251209 3.36433242 -3.42748711
v 4.62570224 1.1102230e-16 -3.91957536
v 4.62570224 3.36433242 -3.91957536
v 4.36820972 3.36433242 -3.71193869
v 4.36820972 1.1102230e-16 -3.71193869
v 4.76501957 3.36433242 -3.21985044
v 4.76501957 5.5511151e-17 -3.21985044
v -4.21156321 5.5511151e-17 2.78121348
v -4.21156321 3.36433242 2.78121348
v -4.21156321 5.5511151e-17 3.77478092
v -4.21156321 3.36433242 3.77478092
v -5.02251209 0.0000000e+0 3.43514598
v -5.02251209 3.36433242 3.43514598
v -4.62570224 5.5511151e-17 3.92723423
v -4.62570224 3.36433242 3.92723423
v -4.36820972 3.36433242 3.71959756
v -4.36820972 5.5511151e-17 3.71959756
v -4.76501957 3.36433242 3.22750931
v -4.76501957 5.5511151e-17 3.22750931
v 4.21156321 3.36433242 2.78954658
v 4.21156321 0.0000000e+0 2.78954658
v 4.21156321 3.36433242 3.78311403
v 4.21156321 5.5511151e-17 3.78311403
v 5.02251209 3.36433242 3.44347908
v 5.02251209 5.5511151e-17 3.44347908
v 4.62570224 3.36433242 3.93556734
v 4.62570224 5.5511151e-17 3.93556734
v 4.36820972 5.5511151e-17 3.72793067
v 4.36820972 3.36433242 3.72793067
v 4.76501957 5.5511151e-17 3.23584241
v 4.76501957 3.36433242 3.23584241
vt 2.5616680e-2 0.93127508
vt 2.5629018e-2 0.94065003
vt 3.3594153e-2 0.74633828
vt 3.3782710e-2 0.74618764
vt 3.4759400e-2 0.91052587
vt 3.4785896e-2 0.89076692
vt 3.5499885e-2 0.42475746
vt 3.5499885e-2 0.42475746
vt 3.8539885e-2 6.4379494e-2
vt 3.8539885e-2 6.4379494e-2
vt 4.6181067e-2 0.93124801
vt 4.6193405e-2 0.94062296
vt 5.1857904e-2 0.92042829
vt 5.1910897e-2 0.88091039
vt 6.0017825e-2 0.28826431
vt 6.0017825e-2 0.38841631
vt 6.3411330e-2 0.78331489
vt 6.3599888e-2 0.78316425
vt 6.4344344e-2 0.62425242
vt 6.4344344e-2 0.62425242
vt 6.6297512e-2 0.93122095
vt 6.6309850e-2 0.94059590
vt 6.7585023e-2 0.74633828
vt 6.7585023e-2 0.77656019
vt 6.7773580e-2 0.74618764
vt 6.7773580e-2 0.77640955
vt 6.8414175e-2 0.26440784
vt 6.8414175e-2 0.26440784
vt 6.9585529e-2 0.91041106
vt 6.9612025e-2 0.89065211
vt 6.9638522e-2 0.87089316
vt 6.9665018e-2 0.85113421
vt 6.9751777e-2 0.83087307
vt 6.9764595e-2 0.79085299
vt 6.9778273e-2 0.81111412
vt 7.3880402e-2 0.95665071
vt 7.5196883e-2 0.42475746
vt 7.5196883e-2 0.42475746
vt 7.5196883e-2 0.62425242
vt 7.5196883e-2 0.62425242
vt 7.7939405e-2 6.4379494e-2
vt 7.7939405e-2 0.26440784
vt 7.8896615e-2 6.4681538e-2
vt 7.8896615e-2 0.26420587
vt 7.8896615e-2 0.27437988
vt 8.3399087e-2 0.74633828
vt 8.3399087e-2 0.77656019
vt 8.3587645e-2 0.74618764
vt 8.3587645e-2 0.77640955
vt 8.5199022e-2 0.65103136
vt 8.5199022e-2 0.69405446
vt 8.5199022e-2 0.65103136
vt 8.5199022e-2 0.69405446
vt 8.5199022e-2 0.65080223
vt 8.5199022e-2 0.65885643
vt 8.5199022e-2 0.66512554
vt 8.5199022e-2 0.66538125
vt 8.5199022e-2 0.66894709
vt 8.5199022e-2 0.66894709
vt 8.5199022e-2 0.67613873
vt 8.5199022e-2 0.67970457
vt 8.5199022e-2 0.68622939
vt 8.5199022e-2 0.69591217
vt 8.5199022e-2 0.65080223
vt 8.5199022e-2 0.66512554
vt 8.5199022e-2 0.69591217
vt 8.5966013e-2 0.93119389
vt 8.5978351e-2 0.94056884
vt 9.5775844e-2 0.96080236
vt 0.10555607 0.94049894
vt 0.10561092 0.93107919
vt 0.11216423 0.97611664
vt 0.11770660 0.95681136
vt 0.24282595 0.65885643
vt 0.24282595 0.66538125
vt 0.24282595 0.66894709
vt 0.24282595 0.66894709
vt 0.24282595 0.67613873
vt 0.24282595 0.67970457
vt 0.24282595 0.68622939
vt 0.24282595 0.65080223
vt 0.24282595 0.66512554
vt 0.24282595 0.69591217
vt 0.24282595 0.65080223
vt 0.24282595 0.66512554
vt 0.24282595 0.69591217
vt 0.24282595 0.65103136
vt 0.24282595 0.69405446
vt 0.24282595 0.65103136
vt 0.24282595 0.69405446
vt 0.25021945 0.85079608
vt 0.25024595 0.83103713
vt 0.25027244 0.81053495
vt 0.25029894 0.79077600
vt 0.25030066 0.91067556
vt 0.25032716 0.89091661
vt 0.25035365 0.87115766
vt 0.26194656 0.28826431
vt 0.26194656 0.38841631
vt 0.27853555 6.4681538e-2
vt 0.27853555 0.26420587
vt 0.27853555 0.27437988
vt 0.27878727 6.4446304e-2
vt 0.27878727 0.26437942
vt 0.27878727 6.4446304e-2
vt 0.27878727 0.26437942
vt 0.28301689 0.28826431
vt 0.28301689 0.38841631
vt 0.28301689 0.28826431
vt 0.28301689 0.38841631
vt 0.28895439 0.26437942
vt 0.28895439 0.26437942
vt 0.31818679 6.4446304e-2
vt 0.31818679 6.4446304e-2
vt 0.45410929 0.42475746
vt 0.45410929 0.42475746
vt 0.45410929 0.62425242
vt 0.45410929 0.62425242
vt 0.46496183 0.62425242
vt 0.46496183 0.62425242
vt 0.48494563 0.28826431
vt 0.48494563 0.38841631
vt 0.48494563 0.28826431
vt 0.48494563 0.38841631
vt 0.49380628 0.42475746
vt 0.49380628 0.42475746
vt 0.56270794 0.71633048
vt 0.56270794 0.81601569
vt 0.56270794 0.86814115
vt 0.56270794 0.96782636
vt 0.57363632 0.71633048
vt 0.57363632 0.81601569
vt 0.57363632 0.86814115
vt 0.57363632 0.96782636
vt 0.57461767 0.81574029
vt 0.57461767 0.82593663
vt 0.57685306 0.49382066
vt 0.57685306 0.69297832
vt 0.76336890 0.35841128
vt 0.76336890 0.41314221
vt 0.81809983 0.35841128
vt 0.81809983 0.41314221
vt 0.85855181 0.33559453
vt 0.85855181 0.37794388
vt 0.89522741 0.31441986
vt 0.89522741 0.39911855
vt 0.93190302 0.33559453
vt 0.93190302 0.37794388
vt 0.95441767 0.81574029
vt 0.95441767 0.82593663
vt 0.95490766 0.49382066
vt 0.95490766 0.69297832
vt 0.95519685 0.71633048
vt 0.95519685 0.81601569
vt 0.95519685 0.86814115
vt 0.95519685 0.96782636
vt 0.96612524 0.71633048
vt 0.96612524 0.81601569
vt 0.96612524 0.86814115
vt 0.96612524 0.96782636
vn 0.30151134 -0.90453403 -0.30151134
vn 0.30151134 -0.90453403 0.30151134
vn 0.0000000e+0 0.70710678 -0.70710678
vn 0.0000000e+0 0.70710678 0.70710678
vn -0.30151134 -0.90453403 -0.30151134
vn -0.30151134 -0.90453403 0.30151134
vn 0.0000000e+0 0.70710678 -0.70710678
vn 0.0000000e+0 0.70710678 0.70710678
vn -0.70710678 -0.70710678 0.0000000e+0
vn -0.70710678 -0.70710678 0.0000000e+0
vn -0.70710678 0.70710678 0.0000000e+0
vn -0.70710678 0.70710678 0.0000000e+0
vn 0.70710678 -0.70710678 0.0000000e+0
vn 0.70710678 -0.70710678 0.0000000e+0
vn 0.70710678 0.70710678 0.0000000e+0
vn 0.70710678 0.70710678 0.0000000e+0
vn 0.60703115 -0.52016538 0.60078379
vn 0.55163662 0.63057547 0.54595936
vn -0.55163662 0.63057547 0.54595936
vn -0.60703115 -0.52016538 0.60078379
vn 0.55163662 0.63057547 -0.54595936
vn 0.60703115 -0.52016538 -0.60078379
vn -0.60703115 -0.52016538 -0.60078379
vn -0.55163662 0.63057547 -0.54595936
vn -0.60703115 -0.52016538 -0.60078379
vn -0.55163662 0.63057547 -0.54595936
vn 0.55163662 0.63057547 -0.54595936
vn 0.60703115 -0.52016538 -0.60078379
vn -0.55163662 0.63057547 0.54595936
vn -0.60703115 -0.52016538 0.60078379
vn 0.60703115 -0.52016538 0.60078379
vn 0.55163662 0.63057547 0.54595936
vn -0.57735027 0.57735027 -0.57735027
vn -0.57735027 0.57735027 0.57735027
vn 0.57735027 0.57735027 0.57735027
vn 0.57735027 0.57735027 -0.57735027
vn 0.67114861 0.31483185 -0.67114861
vn 0.67114861 0.31483185 0.67114861
vn -0.67114861 0.31483185 0.67114861
vn -0.67114861 0.31483185 -0.67114861
vn 1.0611987e-15 1.00000000 0.0000000e+0
vn 0.57735027 -0.57735027 -0.57735027
vn 0.57735027 -0.57735027 0.57735027
vn -0.57735027 -0.57735027 0.57735027
vn -0.57735027 -0.57735027 -0.57735027
vn 0.67114861 0.31483185 -0.67114861
vn 0.67114861 0.31483185 0.67114861
vn -0.67114861 0.31483185 0.67114861
vn -0.67114861 0.31483185 -0.67114861
vn 9.9877528e-16 1.00000000 5.6181109e-16
vn 0.57735027 -0.57735027 -0.57735027
vn 0.57735027 -0.57735027 0.57735027
vn -0.57735027 -0.57735027 0.57735027
vn -0.57735027 -0.57735027 -0.57735027
vn 0.67114861 0.31483185 -0.67114861
vn 0.67114861 0.31483185 0.67114861
vn -0.67114861 0.31483185 0.67114861
vn -0.67114861 0.31483185 -0.67114861
vn 1.0611987e-15 1.00000000 7.4908146e-16
vn 0.57735027 -0.57735027 -0.57735027
vn 0.57735027 -0.57735027 0.57735027
vn -0.57735027 -0.57735027 0.57735027
vn -0.57735027 -0.57735027 -0.57735027
vn 0.67114861 0.31483185 -0.67114861
vn 0.67114861 0.31483185 0.67114861
vn -0.67114861 0.31483185 0.67114861
vn -0.67114861 0.31483185 -0.67114861
vn -7.6323953e-17 1.00000000 -1.8727036e-16
vn 0.57735027 -0.57735027 -0.57735027
vn 0.57735027 -0.57735027 0.57735027
vn -0.57735027 -0.57735027 0.57735027
vn -0.57735027 -0.57735027 -0.57735027
vn 0.31202033 -0.50000000 0.80786343
vn 0.85564041 -0.50000000 0.13371418
vn 0.41093816 -0.75592895 -0.50960893
vn -0.31202033 -0.50000000 -0.80786343
vn -0.85564041 -0.50000000 -0.13371418
vn -0.41093816 -0.75592895 0.50960893
vn 0.31202033 0.50000000 0.80786343
vn 0.85564041 0.50000000 0.13371418
vn 0.41093816 0.75592895 -0.50960893
vn -0.31202033 0.50000000 -0.80786343
vn -0.85564041 0.50000000 -0.13371418
vn -0.41093816 0.75592895 0.50960893
vn -0.85564041 -0.50000000 0.13371418
vn -0.31202033 -0.50000000 0.80786343
vn 0.41093816 -0.75592895 0.50960893
vn 0.85564041 -0.50000000 -0.13371418
vn 0.31202033 -0.50000000 -0.80786343
vn -0.41093816 -0.75592895 -0.50960893
vn -0.85564041 0.50000000 0.13371418
vn -0.31202033 0.50000000 0.80786343
vn 0.41093816 0.75592895 0.50960893
vn 0.85564041 0.50000000 -0.13371418
vn 0.31202033 0.50000000 -0.80786343
vn -0.41093816 0.75592895 -0.50960893
vn 0.85564041 -0.50000000 -0.13371418
vn 0.31202033 -0.50000000 -0.80786343
vn -0.41093816 -0.75592895 -0.50960893
vn -0.85564041 -0.50000000 0.13371418
vn -0.31202033 -0.50000000 0.80786343
vn 0.41093816 -0.75592895 0.50960893
vn 0.85564041 0.50000000 -0.13371418
vn 0.31202033 0.50000000 -0.80786343
vn -0.41093816 0.75592895 -0.50960893
vn -0.85564041 0.50000000 0.13371418
vn -0.31202033 0.50000000 0.80786343
vn 0.41093816 0.75592895 0.50960893
vn -0.31202033 -0.50000000 -0.80786343
vn -0.85564041 -0.50000000 -0.13371418
vn -0.41093816 -0.75592895 0.50960893
vn 0.31202033 -0.50000000 0.80786343
vn 0.85564041 -0.50000000 0.13371418
vn 0.41093816 -0.75592895 -0.50960893
vn -0.31202033 0.50000000 -0.80786343
vn -0.85564041 0.50000000 -0.13371418
vn -0.41093816 0.75592895 0.50960893
vn 0.31202033 0.50000000 0.80786343
vn 0.85564041 0.50000000 0.13371418
vn 0.41093816 0.75592895 -0.50960893
vn 0.28185660 0.75710593 0.58936191
vn 0.28185660 -0.75710593 0.58936191
vn 0.43693510 0.65435417 -0.61717771
vn 0.43693510 -0.65435417 -0.61717771
vn -0.81184622 0.57735027 8.7019437e-2
vn -0.81184622 -0.57735027 8.7019437e-2
vn -8.7019437e-2 0.57735027 -0.81184622
vn -8.7019437e-2 -0.57735027 -0.81184622
vn 0.11126396 -0.75317464 -0.64834272
vn 0.11126396 0.75317464 -0.64834272
vn -0.44386394 -0.70710678 0.55044055
vn -0.44386394 0.70710678 0.55044055
vn -0.28185660 -0.75710593 0.58936191
vn -0.28185660 0.75710593 0.58936191
vn -0.43693510 -0.65435417 -0.61717771
vn -0.43693510 0.65435417 -0.61717771
vn 0.81184622 -0.57735027 8.7019437e-2
vn 0.81184622 0.57735027 8.7019437e-2
vn 8.7019437e-2 -0.57735027 -0.81184622
vn 8.7019437e-2 0.57735027 -0.81184622
vn -0.11126396 0.75317464 -0.64834272
vn -0.11126396 -0.75317464 -0.64834272
vn 0.44386394 0.70710678 0.55044055
vn 0.44386394 -0.70710678 0.55044055
vn 0.28185660 -0.75710593 -0.58936191
vn 0.28185660 0.75710593 -0.58936191
vn 0.43693510 -0.65435417 0.61717771
vn 0.43693510 0.65435417 0.61717771
vn -0.81184622 -0.57735027 -8.7019437e-2
vn -0.81184622 0.57735027 -8.7019437e-2
vn -8.7019437e-2 -0.57735027 0.81184622
vn -8.7019437e-2 0.57735027 0.81184622
vn 0.11126396 0.75317464 0.64834272
vn 0.11126396 -0.75317464 0.64834272
vn -0.44386394 0.70710678 -0.55044055
vn -0.44386394 -0.70710678 -0.55044055
vn -0.28185660 0.75710593 -0.58936191
vn -0.28185660 -0.75710593 -0.58936191
vn -0.43693510 0.65435417 0.61717771
vn -0.43693510 -0.65435417 0.61717771
vn 0.81184622 0.57735027 -8.7019437e-2
vn 0.81184622 -0.57735027 -8.7019437e-2
vn 8.7019437e-2 0.57735027 0.81184622
vn 8.7019437e-2 -0.57735027 0.81184622
vn -0.11126396 -0.75317464 0.64834272
vn -0.11126396 0.75317464 0.64834272
vn 0.44386394 -0.70710678 -0.55044055
vn 0.44386394 0.70710678 -0.55044055
g Mech Hangar_Mech Hangar_auv
usemtl Mech Hangar_auv
s 1
f 1/103/1 28/113/28 27/111/27 3/104/3
f 2/43/2 6/100/6 8/101/8 4/44/4
f 3/101/3 7/44/7 5/43/5 1/100/1
f 3/134/3 12/133/12 11/155/11 4/156/4
f 3/134/3 27/130/27 26/129/26 12/133/12
f 3/101/3 33/102/33 36/45/36 7/44/7
f 4/42/4 32/27/32 31/10/31 2/41/2
f 4/149/4 34/150/34 33/136/33 3/135/3
f 6/105/6 20/114/20 19/112/19 8/106/8
f 7/42/7 24/28/24 23/9/23 5/41/5
f 7/149/7 36/150/36 35/136/35 8/135/8
f 8/153/8 16/154/16 15/132/15 7/131/7
f 8/153/8 19/157/19 18/158/18 16/154/16
f 8/101/8 35/102/35 34/45/34 4/44/4
f 10/115/10 11/117/11 12/39/12 9/37/9
f 10/115/10 30/125/30 29/119/29 11/117/11
f 11/155/11 29/159/29 32/160/32 4/156/4
f 12/39/12 26/20/26 25/7/25 9/37/9
f 14/116/14 15/118/15 16/40/16 13/38/13
f 14/116/14 22/126/22 21/120/21 15/118/15
f 15/132/15 21/128/21 24/127/24 7/131/7
f 16/40/16 18/19/18 17/8/17 13/38/13
f 18/16/18 19/15/19 20/98/20 17/99/17
f 22/123/22 23/124/23 24/108/24 21/107/21
f 26/16/26 27/15/27 28/98/28 25/99/25
f 30/121/30 31/122/31 32/110/32 29/109/29
f 34/151/34 35/152/35 36/138/36 33/137/33
f 37/72/37 41/69/41 38/73/38
f 37/22/37 42/21/42 45/67/45 40/68/40
f 38/73/38 41/69/41 39/70/39
f 38/12/38 43/11/43 42/21/42 37/22/37
f 39/70/39 41/69/41 40/68/40
f 39/2/39 44/1/44 43/11/43 38/12/38
f 40/68/40 41/69/41 37/36/37
f 40/68/40 45/67/45 44/71/44 39/70/39
f 43/139/43 44/141/44 45/142/45 42/140/42
f 46/72/46 50/69/50 47/73/47
f 46/22/46 51/21/51 54/67/54 49/68/49
f 47/73/47 50/69/50 48/70/48
f 47/12/47 52/11/52 51/21/51 46/22/46
f 48/70/48 50/69/50 49/68/49
f 48/2/48 53/1/53 52/11/52 47/12/47
f 49/68/49 50/69/50 46/36/46
f 49/68/49 54/67/54 53/71/53 48/70/48
f 52/139/52 53/141/53 54/142/54 51/140/51
f 55/72/55 59/69/59 56/73/56
f 55/22/55 60/21/60 63/67/63 58/68/58
f 56/73/56 59/69/59 57/70/57
f 56/12/56 61/11/61 60/21/60 55/22/55
f 57/70/57 59/69/59 58/68/58
f 57/2/57 62/1/62 61/11/61 56/12/56
f 58/68/58 59/69/59 55/36/55
f 58/68/58 63/67/63 62/71/62 57/70/57
f 61/139/61 62/141/62 63/142/63 60/140/60
f 64/72/64 68/69/68 65/73/65
f 64/22/64 69/21/69 72/67/72 67/68/67
f 65/73/65 68/69/68 66/70/66
f 65/12/65 70/11/70 69/21/69 64/22/64
f 66/70/66 68/69/68 67/68/67
f 66/2/66 71/1/71 70/11/70 65/12/65
f 67/68/67 68/69/68 64/36/64
f 67/68/67 72/67/72 71/71/71 66/70/66
f 70/139/70 71/141/71 72/142/72 69/140/69
f 73/145/73 78/147/78 75/144/75 74/143/74
f 73/96/73 79/30/79 84/31/84 78/97/78
f 74/95/74 80/29/80 79/30/79 73/96/73
f 75/144/75 78/147/78 77/148/77 76/146/76
f 75/93/75 81/35/81 80/34/80 74/94/74
f 76/92/76 82/33/82 81/35/81 75/93/75
f 77/91/77 83/32/83 82/33/82 76/92/76
f 78/97/78 84/31/84 83/32/83 77/91/77
f 80/29/80 81/13/81 84/14/84 79/30/79
f 82/5/82 83/6/83 84/14/84 81/13/81
f 85/145/85 90/147/90 87/144/87 86/143/86
f 85/96/85 91/30/91 96/31/96 90/97/90
f 86/95/86 92/29/92 91/30/91 85/96/85
f 87/144/87 90/147/90 89/148/89 88/146/88
f 87/93/87 93/35/93 92/34/92 86/94/86
f 88/92/88 94/33/94 93/35/93 87/93/87
f 89/91/89 95/32/95 94/33/94 88/92/88
f 90/97/90 96/31/96 95/32/95 89/91/89
f 92/29/92 93/13/93 96/14/96 91/30/91
f 94/5/94 95/6/95 96/14/96 93/13/93
f 97/145/97 102/147/102 99/144/99 98/143/98
f 97/96/97 103/30/103 108/31/108 102/97/102
f 98/95/98 104/29/104 103/30/103 97/96/97
f 99/144/99 102/147/102 101/148/101 100/146/100
f 99/93/99 105/35/105 104/34/104 98/94/98
f 100/92/100 106/33/106 105/35/105 99/93/99
f 101/91/101 107/32/107 106/33/106 100/92/100
f 102/97/102 108/31/108 107/32/107 101/91/101
f 104/29/104 105/13/105 108/14/108 103/30/103
f 106/5/106 107/6/107 108/14/108 105/13/105
f 109/145/109 114/147/114 111/144/111 110/143/110
f 109/96/109 115/30/115 120/31/120 114/97/114
f 110/95/110 116/29/116 115/30/115 109/96/109
f 111/144/111 114/147/114 113/148/113 112/146/112
f 111/93/111 117/35/117 116/34/116 110/94/110
f 112/92/112 118/33/118 117/35/117 111/93/111
f 113/91/113 119/32/119 118/33/118 112/92/112
f 114/97/114 120/31/120 119/32/119 113/91/113
f 116/29/116 117/13/117 120/14/120 115/30/115
f 118/5/118 119/6/119 120/14/120 117/13/117
f 121/66/121 132/65/132 131/85/131 122/86/122
f 122/89/122 124/90/124 123/53/123 121/52/121
f 122/3/122 131/23/131 129/24/129 124/17/124
f 123/18/123 130/26/130 132/25/132 121/4/121
f 124/76/124 129/78/129 130/60/130 123/59/123
f 125/62/125 127/55/127 128/74/128 126/80/126
f 125/48/125 132/25/132 130/26/130 127/49/127
f 126/84/126 131/85/131 132/65/132 125/64/125
f 127/61/127 130/57/130 129/75/129 128/79/128
f 128/47/128 129/24/129 131/23/131 126/46/126
f 133/83/133 144/82/144 143/56/143 134/63/134
f 134/50/134 136/51/136 135/88/135 133/87/133
f 134/3/134 143/23/143 141/24/141 136/17/136
f 135/18/135 142/26/142 144/25/144 133/4/133
f 136/58/136 141/60/141 142/78/142 135/77/135
f 137/80/137 139/74/139 140/55/140 138/62/138
f 137/48/137 144/25/144 142/26/142 139/49/139
f 138/54/138 143/56/143 144/82/144 137/81/137
f 139/79/139 142/75/142 141/57/141 140/61/140
f 140/47/140 141/24/141 143/23/143 138/46/138
f 145/83/145 156/82/156 155/56/155 146/63/146
f 146/50/146 148/51/148 147/88/147 145/87/145
f 146/3/146 155/23/155 153/24/153 148/17/148
f 147/18/147 154/26/154 156/25/156 145/4/145
f 148/58/148 153/60/153 154/78/154 147/77/147
f 149/80/149 151/74/151 152/55/152 150/62/150
f 149/48/149 156/25/156 154/26/154 151/49/151
f 150/54/150 155/56/155 156/82/156 149/81/149
f 151/79/151 154/75/154 153/57/153 152/61/152
f 152/47/152 153/24/153 155/23/155 150/46/150
f 157/66/157 168/65/168 167/85/167 158/86/158
f 158/89/158 160/90/160 159/53/159 157/52/157
f 158/3/158 167/23/167 165/24/165 160/17/160
f 159/18/159 166/26/166 168/25/168 157/4/157
f 160/76/160 165/78/165 166/60/166 159/59/159
f 161/62/161 163/55/163 164/74/164 162/80/162
f 161/48/161 168/25/168 166/26/166 163/49/163
f 162/84/162 167/85/167 168/65/168 161/64/161
f 163/61/163 166/57/166 165/75/165 164/79/164
f 164/47/164 165/24/165 167/23/167 162/46/162
g Mech Hangar_default
usemtl default
s 1
f 1//1 5//5 6//6 2//2
f 2//2 10//10 9//9 1//1
f 2//2 31//31 30//30 10//10
f 5//5 14//14 13//13 6//6
f 5//5 23//23 22//22 14//14
f 9//9 25//25 28//28 1//1
f 13//13 17//17 20//20 6//6
